<?xml version="1.0" encoding="UTF-8"?>
<svg id="Capa_2" data-name="Capa 2" xmlns="http://www.w3.org/2000/svg" viewBox="0 0 388.38 1164.12">
  <defs>
    <style>
      .cls-1 {
        fill: #efd9c6;
      }
    </style>
  </defs>
  <g id="Capa_1-2" data-name="Capa 1">
    <g>
      <g>
        <path class="cls-1" d="M261.79,518.52c35.78,13.32,65.61,39.75,86.57,71.27,10.81,15.46,18.06,32.75,26.82,49.35,8.98,16.95,12.21,36.23,13.09,55.26,2.66,76.66-42.54,153.55-113.13,185.03-23.27,10.49-48.79,16.35-74.34,16.31-76.44.18-148.66-45.29-180.05-115.08-15.68-34.18-23.36-72.51-18.88-110.08,4.56-38.03,22.93-73.97,49.79-101.1,52.18-52.61,139.73-77.5,210.12-50.95h0ZM258.27,527.96c-45.77-16.92-98.29-19.57-142.96,2.25-56.08,26.16-93.5,81.97-105.34,141.67-7.65,36.13-4.7,74.98,10.8,108.76,21.72,48.24,65.23,85.71,116.03,100.31,91.32,26.71,198.41-24.49,231.31-114.56,13.01-34.31,14.09-72.13,6.98-107.9-.98-5.2-2.14-12.95-3.12-18.25-3.42-18.45-13.41-34.98-24.55-49.77-22.6-29.22-54.78-49.83-89.15-62.5h0Z"/>
        <path class="cls-1" d="M257.81,529.2c33.68,12.56,62,37.22,81.75,66.94,8.45,12.14,14.63,25.45,21.09,38.66,3.99,7.97,8.37,15.9,10.9,24.52,15.8,58.25-3.23,122.99-43.12,167.4-32.16,35.88-79.7,57.94-128.03,57.93-71.68.46-140.82-42.79-169.85-108.49-14.74-32.26-21.96-68.39-17.65-103.82,7.21-60.44,50.58-111.6,105.5-135.4,43.4-18.96,94.45-24.96,139.41-7.75h0ZM254.56,537.95c-32.32-11.67-67.88-16.59-101.77-9.03-63.4,13.85-110.97,66.75-127.99,128.01-7.98,27.69-10.5,57.31-4.54,85.7,11.57,57.53,56.54,106,111.63,125.02,65.3,22.74,142.19,2.38,189.6-47.38,32.02-32.92,49.22-79.29,47.05-125.15-.26-14.38-3.02-28.51-5.44-42.68-.85-5.11-2.13-12.26-3.58-17.19-4.5-13.94-12.41-26.62-21.18-38.23-21.3-27.49-51.39-47.15-83.78-59.07h0Z"/>
        <path class="cls-1" d="M253.84,539.88c31.6,11.78,58.23,34.84,76.81,62.7,9.6,13.67,15.95,29.01,23.61,43.74,26.32,54.28,5.62,129.85-34.06,172.76-30.23,33.67-74.81,54.43-120.21,54.49-78.62-.14-145.57-50.14-168.61-125.06-10.89-34.6-12.3-72.89.56-107.2,20.27-56.14,73.25-95.49,130.69-107.03,30.15-6.36,62.23-5.58,91.21,5.59h0ZM250.84,547.95c-65.26-23.99-131.06-11.61-177.81,41.37-34.76,39.89-52.55,98.54-41.86,150.72,11.47,56.63,57.31,103.66,112.4,119.58,59.5,17.3,127.43-2.05,169.98-46.74,38.79-40.25,51.64-95.24,40.43-149.39-1.44-7.72-2.56-16.55-4.78-24.12-15.61-44.06-55.48-75.72-98.36-91.42h0Z"/>
        <path class="cls-1" d="M249.87,550.54c39.36,14.65,69.95,47.76,87.04,85.42,4.32,9.47,9.88,18.47,12.83,28.53,13.83,51.12-2.68,107.97-37.76,146.95-59.44,66.73-162.51,66.8-226.1,6.06-26.53-24.91-43.21-59.1-49.58-94.67-13.26-71.59,25.79-136.84,91.3-165.77,38.11-16.69,82.84-21.51,122.27-6.52h0ZM247.11,557.97c-61.01-22.36-122.44-10.64-166.12,38.77-31.07,35.79-47.13,86.13-40.31,133.2,7.83,53.39,48.47,99.26,99.01,116.73,77.11,27.1,169.34-14.57,197.84-91.65,12.04-31.45,11.31-63.98,4.59-96.5-1.24-7.36-2.88-15.4-5.9-22.24-16.84-37.46-51.26-64.57-89.11-78.31h0Z"/>
        <path class="cls-1" d="M245.91,561.19c39.39,14.43,67.93,48.26,84.22,85.8,2.11,4.36,4.41,8.67,6.27,13.18,4.54,11.37,6.28,23.68,6.91,35.87,2.27,59.07-32.59,118.17-86.88,142.53-53.61,25.26-121.07,11.73-163.19-28.98-21.24-19.86-35.46-46.18-43.04-74.05-19.54-71,15.38-138.95,82-168.42,35.45-15.53,77.04-19.85,113.71-5.92h0ZM243.38,567.99c-77.92-29.1-153.36,6.86-182.8,83.98-11.55,30.69-14.39,65.2-4.02,96.66,14.23,42.82,50.57,77.17,93.75,89.71,92.68,26.22,190.01-43.74,185.78-142.04-.2-11.71-2.42-23.22-4.47-34.75-.74-4.12-1.85-9.96-3.05-13.94-13.59-38.25-48.04-66.04-85.2-79.62h0Z"/>
        <path class="cls-1" d="M241.95,571.83c33.86,12.62,60.33,40.81,75.09,73.23,3.71,8.02,8.4,15.87,10.92,24.6,7.26,26.26,4.8,54.67-4.54,80.1-21.75,61.81-86.83,101.34-151.7,88.13-74.42-13.46-123.3-84.4-114.72-158.43,5.63-45.37,38.43-84.48,79.81-102.28,32.74-14.37,71.26-18.21,105.14-5.35h0ZM239.65,578.03c-30.33-11.23-65.18-13.14-95.44-.42-66.89,26.87-102.25,113.97-72.23,179.61,40.65,86.19,152.44,100.58,217.74,33.52,30.89-31.85,41.63-76.69,32.55-119.72-1.57-8.47-2.65-17.41-6.29-25.47-14.42-32.16-43.78-55.7-76.33-67.52h0Z"/>
        <path class="cls-1" d="M238,582.46c31.08,11.59,55.52,37.36,69.1,67.15,3.41,7.37,7.67,14.61,9.98,22.64,6.65,24.14,4.45,50.24-4.13,73.62-19.97,56.85-79.83,93.19-139.48,81.18-50.05-8.8-89.92-47.73-102.06-96.54-6.29-24.02-6.18-50.11,2.66-73.51,23.01-63.15,101.35-97.74,163.92-74.53h0ZM235.91,588.08c-74.74-28.38-146.75,17.46-161.4,94.21-12.05,57.67,21.94,113.6,76.87,132.99,79.45,27.29,166.64-32.66,163.07-118.18-.25-7.9-1.21-15.78-2.76-23.57-1.45-7.77-2.5-15.95-5.83-23.35-13.22-29.51-40.05-51.24-69.95-62.1h0Z"/>
        <path class="cls-1" d="M234.05,593.07c28.31,10.57,50.69,33.93,63.09,61.09,3.12,6.72,6.95,13.35,9.04,20.66,2,7.3,3.14,14.85,3.46,22.44,2.66,72.61-61.76,132.84-134.44,118.93-45.65-7.9-82.26-43.69-93.19-88.21-5.7-21.93-5.52-45.73,2.57-67.08,21.01-57.61,92.39-89.07,149.45-67.83h0ZM232.16,598.14c-59.57-22.34-118.97,6.02-141.14,65.16-10.12,26.91-11.08,58.17,1.35,84.58,15.25,33.1,47.77,57.25,83.86,62.04,50.07,7.14,102.75-22.21,120.5-70.08,7.73-20.27,8.69-42.63,4.37-63.8-1.32-7.07-2.33-14.5-5.36-21.23-12.03-26.9-36.26-46.71-63.58-56.66h0Z"/>
        <path class="cls-1" d="M230.1,603.68c25.55,9.54,45.85,30.52,57.08,55.04,2.83,6.07,6.23,12.08,8.12,18.69,1.81,6.6,2.84,13.42,3.14,20.27,2.43,65.77-55.71,119.95-121.48,107.66-33.8-5.88-63.82-29.27-77.53-60.69-8.42-18.62-12.17-39.5-9.38-59.86,8.55-63.74,80.97-102.88,140.05-81.11h0ZM228.42,608.21c-53.54-20.09-107.42,5.66-127.23,58.87-9.08,24.28-9.83,52.31,1.37,76.14,13.75,29.75,43,51.42,75.44,55.78,19.13,2.68,38.93-.46,56.53-8.31,43.62-19.79,66-65.41,56-112.14-1.2-6.38-2.15-13.05-4.87-19.12-10.82-24.25-32.58-42.23-57.23-51.21h0Z"/>
        <path class="cls-1" d="M226.16,614.27c22.83,8.5,40.96,27.08,51.06,49.01,2.53,5.42,5.53,10.81,7.21,16.71,14.63,56.47-28.53,114.87-87.28,115.94-37.08,1.13-73.18-21.8-87.83-55.81-10.06-22.14-12.47-48.35-3.71-71.39,17.01-46.51,74.5-71.75,120.54-54.46h0ZM224.67,618.29c-61.35-23.14-119.02,22.99-119.44,86.44.16,53.75,52.56,93.3,104.41,82.53,35.57-6.52,65.64-35.63,71.16-71.72,1.86-11.43,1.42-23.13-.88-34.48-1.07-5.68-1.96-11.61-4.38-17.01-9.6-21.55-28.92-37.79-50.88-45.75h0Z"/>
        <path class="cls-1" d="M222.23,624.85c20.07,7.46,36.11,23.71,45.03,42.99,16.35,28.59,8.87,66.33-12.72,90.21-13.63,15.24-33.26,25.06-53.7,26.57-59.27,5.24-104.97-56.74-84.71-111.98,15.03-40.95,65.56-63.11,106.1-47.79h0ZM220.91,628.39c-53.68-20.19-104.55,20.33-104.66,75.94.04,42.28,38.64,76.1,80.25,73.55,48.76-2.57,83.15-46.27,72.84-94.31-3.23-25.95-24.63-46.53-48.43-55.18h0Z"/>
        <path class="cls-1" d="M218.29,635.42c22.41,8.38,36.9,27.6,44.4,49.72,3.7,13.52,2.66,28.11-2.08,41.26-13,37.41-55.01,57.18-91.99,42.52-35.59-13.21-55.55-56.88-41.99-92.37,13.03-35.41,56.64-54.43,91.66-41.13h0ZM217.15,638.5c-25.41-9.74-54.46-3.17-72.31,17.58-17.1,19.6-23.07,49.3-11.8,73.19,7.45,15.75,21.33,28.2,37.73,33.9,49.6,17.11,99.12-25.28,87.98-77.09-2.9-22.28-21.05-40.14-41.59-47.58h0Z"/>
        <path class="cls-1" d="M214.37,645.97c18.8,7,31.29,23.11,37.47,41.74,11.74,46.82-33.88,88.33-79.38,70.92-38.89-14.78-52.7-67.9-22.6-97.9,16.36-16.71,42.55-23.03,64.51-14.76h0ZM213.38,648.62c-21.14-8.14-45.77-2.4-60.56,14.89-25.83,30.36-16.52,75.27,21.8,89.28,41.34,14.47,82.73-20.98,73.5-64.19-2.52-18.61-17.53-33.73-34.75-39.98h0Z"/>
        <path class="cls-1" d="M210.44,656.52c15.14,5.58,25.63,18.71,30.53,33.77,2.47,9.3,1.99,19.25-1.27,28.32-9.5,27.63-41.73,41.06-67.89,27.72-28.59-14.42-37.04-54.97-13.79-78,13.3-13.59,34.61-18.52,52.42-11.81h0ZM209.61,658.75c-11.19-4.25-24.02-3.73-34.8,1.46-27.67,13.39-35,52.99-11.07,73.53,29.07,25.47,75.38,5.36,74.72-33.87-.25-5.89-1.19-11.81-3.25-17.36-4.79-11-14.35-19.68-25.6-23.76h0Z"/>
        <path class="cls-1" d="M206.52,667.05c13.64,4.99,23.75,18.59,24.8,33.08,1.28,20.84-15.27,39.36-36.19,40.27-10.2.61-20.48-3.45-27.73-10.59-10.71-10.56-14.88-27.47-9.29-41.55,7.18-18.77,29.86-28.45,48.42-21.2h0ZM205.84,668.89c-23.12-8.52-46.43,9.64-45.57,33.83.59,23.13,26.45,37.74,47.13,28.7,27.52-11.98,26.9-52-1.56-62.54h0Z"/>
        <path class="cls-1" d="M202.61,677.57c27.34,10.87,21.19,49.09-7.89,51.72-7.29.52-14.73-2.33-19.86-7.51-20.15-21.19-.1-53.86,27.75-44.2h0ZM202.06,679.05c-11.8-4.6-26.03,2.68-29.62,14.55-3.51,10,.62,21.26,9.91,26.31,6.16,3.48,13.9,4.41,20.52,1.63,18.8-7.82,18.3-35.28-.81-42.49h0Z"/>
        <path class="cls-1" d="M198.7,688.08c9.74,3.46,13.51,16.22,6.84,24.42-9.47,11.71-28.45,4.65-27.97-10.41.31-10.56,11.5-17.76,21.13-14.01h0ZM198.28,689.21c-10.4-3.84-19.81,7.3-14.44,16.8,4.43,8.16,16.72,8.01,20.93-.4,3.24-6.02.03-14.15-6.49-16.4h0Z"/>
      </g>
      <g>
        <path class="cls-1" d="M385.97,161.63c8.88,50.19-7.78,101.88-36.4,143.02-28.51,41.09-72.33,72.87-122.03,82.31-73.24,14.68-151.18-16.21-192.63-78.75-43.99-66.47-43.23-156.61,2.95-221.63C59.47,55.81,88.16,29.13,122.98,13.96,158.19-1.45,198.63-3.98,235.72,5.76c71.36,18.71,137.6,82.01,150.25,155.87h0ZM376.04,163.38c-6.71-35.84-21.14-71.13-46.31-98.09C287.7,19.61,221.47,3.21,161.58,13.83c-35.98,6.28-71.25,20.6-98.9,45.02C11.2,104.47-7.81,181.18,12.64,246.34c10.89,35.07,32.92,65.97,60.79,89.59,62.47,52.83,151.02,59.62,221.62,18.62,69.31-40.73,95.25-113.88,80.99-191.16h0Z"/>
        <path class="cls-1" d="M374.73,163.62c8.37,47.26-6.99,96.07-34.11,134.78-25.31,36.13-62.95,64.95-106.28,75.57-68.26,17.34-142.94-8.19-185.19-64.81C2.34,246.61,1.62,156.26,46.66,92.73,83.08,39.54,140.88,5.51,206.67,12.02c78.02,7.17,154.75,73.68,168.06,151.59h0ZM365.55,165.24c-6.31-33.78-20.01-66.98-43.75-92.34-28.63-30.9-69.92-48.47-111.53-50.93-46.98-2.93-95.66,10.39-133.02,39.47C28.47,99.55,6.76,166.43,19.15,226.46c13.44,67.81,69.92,123.85,136.93,139.2,44.67,10.65,93.35,2.62,133.06-20.39,64.86-37.89,89.8-107.85,76.41-180.04h0Z"/>
        <path class="cls-1" d="M363.51,165.6c7.85,44.34-6.37,90.2-31.82,126.55-23.75,33.95-59.14,60.96-99.83,70.93-96.35,23.9-191.53-39.44-205.78-137.84C13.48,147.76,59.41,66.12,131.1,34.81c28.63-12.27,61.04-15.25,91.53-9.03,66.92,13.77,129.11,71.61,140.89,139.83h0ZM355.05,167.1c-12.81-71.62-60.61-123.08-133.8-133.19-45.15-5.99-92.65,4.98-130.08,31.15C41.1,99.75,17.75,165.54,30.19,224.51c10.45,52.9,48.98,98.62,97.91,120.4,39.2,17.77,85.02,19.09,125.55,4.64,78.93-27.66,116.46-101.56,101.4-182.45h0Z"/>
        <path class="cls-1" d="M352.31,167.58c7.27,41.43-5.75,84.31-29.55,118.31-22.21,31.76-55.32,56.97-93.37,66.29-90.04,22.36-179.17-36.89-192.6-128.84-11.81-72.5,31.19-148.97,98.39-178.09,48.89-21.35,107.5-11.13,149.63,20.15,33.6,24.52,60.46,60.56,67.51,102.17h0ZM344.53,168.95c-7.28-40.05-27.29-77.71-61.79-100.61-41.95-28.54-97.42-31.94-144.51-15.21-71.54,23.88-111.86,95.78-97.02,169.42,11.63,59.35,60.86,108.59,119.55,121.98,29.21,7.01,60.56,4.78,88.92-5.19,73.31-25.47,109.02-95.4,94.85-170.4h0Z"/>
        <path class="cls-1" d="M341.11,169.56c11.27,67.44-31.53,138-93.4,164.77-45.31,19.37-100.25,13.48-140.42-15.21-48.91-33.38-71.6-98.47-57.45-155.34,9.03-37.72,32.07-71.29,63.74-93.81,59.07-42.23,138.08-27.48,186.79,23.44,20.48,20.77,35.85,47.15,40.73,76.14h0ZM334,170.82c-6.48-36.77-25.82-72.57-57.56-93.46-47.09-31.86-111.14-30.15-159.71-2.48-53.24,29.57-78.07,94.33-62.96,152.62,13.03,52.1,57.12,94.53,109.33,106.48,27.13,6.52,56.27,4.46,82.61-4.82,67.75-23.35,101.54-89.11,88.29-158.34h0Z"/>
        <path class="cls-1" d="M329.93,171.53c11.99,71.46-41.27,146.67-112.14,160.37-75.62,14.87-148.28-35.93-159.58-112.34C43.18,127.12,129.38,35.3,223.59,60.55c51.82,13.62,96.8,57.6,106.34,110.99h0ZM323.45,172.68c-5.68-31.84-21.65-62.9-48.01-82.48-57.39-43.71-149.28-29.83-191.38,28.7-42.56,60.11-24.88,142.3,34.79,183.7,42.47,30.33,101.72,32.11,146.54,5.42,47.81-27.46,68.33-82.35,58.07-135.35h0Z"/>
        <path class="cls-1" d="M318.77,173.51c11.07,65.64-37.67,134.89-102.91,147.39-79.96,15.38-151.51-46.77-148.34-127.99,2.15-53.6,39.81-105.03,91.7-120.47,20.06-5.86,41.81-6.19,61.96-.95,47.78,12.51,88.77,52.87,97.6,102.02h0ZM312.9,174.54c-5.2-29.25-20-57.69-44.19-75.65-40-30.5-97.45-30.25-140.16-5.48-27.87,15.76-48.09,44.33-54.28,75.77-13.47,64.67,29.76,128.85,93.51,143.65,46.32,11.14,99.43-6.93,126.98-46.53,18.82-26.37,23.93-60.35,18.14-91.76h0Z"/>
        <path class="cls-1" d="M307.61,175.48c10.2,59.87-34.14,123.05-93.71,134.42-63.32,12.49-124.61-30.14-134.2-94.14-7.51-45.02,14.5-92.12,51.75-117.77,38.27-27.22,90.91-23.98,127.97,3.69,24.23,17.63,43.07,43.91,48.19,73.8h0ZM302.33,176.41c-10.99-62.93-65.3-99.14-127.64-88.37-61.98,10.77-101.24,64.38-89.51,126.75,11.06,57.83,69.45,98.91,127.66,89.06,63.1-10.05,101.14-64.72,89.49-127.44h0Z"/>
        <path class="cls-1" d="M296.47,177.45c9.31,54.11-30.64,111.2-84.51,121.45-57.35,11.25-112.61-27.13-121.49-85.04-6.83-40.75,13.14-83.41,46.94-106.53,34.63-24.46,82.18-21.59,115.66,3.42,21.89,15.92,38.77,39.73,43.39,66.7h0ZM291.75,178.28c-9.87-56.54-59.17-89.41-115.17-79.61-55.67,9.73-90.99,58.19-80.43,114.19,10.01,52.24,62.19,89.04,114.8,80.27,56.74-8.99,91.24-58.43,80.8-114.84h0Z"/>
        <path class="cls-1" d="M285.34,179.42c4.76,26.99-4.47,55.21-21.82,76.04-50.77,61.65-149.33,35.42-162.27-43.5-6.14-36.48,11.79-74.69,42.13-95.28,20.29-14.04,46.68-18.64,70.54-12.37,35.26,9.04,65.03,38.99,71.43,75.11h0ZM281.15,180.16c-11.17-64.71-80.02-90.67-134.89-58.96-43.8,25.62-53.33,84.78-23.77,124.91,19.25,26.92,53.75,41.79,86.56,36.3,21.49-3.28,42.19-14.4,55.74-31.67,15.75-19.56,20.94-46.15,16.36-70.57h0Z"/>
        <path class="cls-1" d="M274.23,181.38c3.97,22.41-2.93,45.86-16.55,63.83-34.32,46.11-103.46,43.89-134.29-4.76-24.25-38.89-11.29-89.04,25.95-114.43,17.92-12.29,41.15-16.31,62.16-10.79,31.05,7.94,57.16,34.34,62.73,66.15h0ZM270.54,182.03c-8.6-50.07-58.1-75.32-104.75-58.1-35.42,12.73-54.94,48.3-47.77,85.05,7.4,40.55,48.46,69.61,89.12,62.68,18.85-2.86,36.97-12.62,48.87-27.74,13.84-17.12,18.53-40.49,14.53-61.89h0Z"/>
        <path class="cls-1" d="M263.12,183.34c4,22.78-4.67,46.72-20.88,62.93-40.39,40.96-110.13,18.59-119.41-38.14-5.56-32.6,14.31-67.03,44.86-79.33,40.47-16.69,88.05,12.26,95.43,54.54h0ZM259.92,183.91c-6.38-37.43-40.73-60.24-77.7-53.3-31.63,5.69-54.59,31.05-54.5,63.59.54,58.64,68.76,88.94,112.73,50.21,16.68-14.89,23.67-38.75,19.47-60.5h0Z"/>
        <path class="cls-1" d="M252.03,185.3c4.1,23.07-7.09,47.44-26.32,60.51-35.64,24.44-85.14,3.03-92.07-39.58-5.5-31.56,17.75-65.08,49.53-70.18,31.35-5.6,63.63,18.12,68.86,49.26h0ZM249.29,185.79c-3.73-22.4-21.07-40.64-43.54-44.58-34.01-6.13-67.2,17.52-66.91,53.23.22,48.81,57.36,74.35,93.96,41.98,13.94-12.48,20-32.39,16.49-50.63h0Z"/>
        <path class="cls-1" d="M240.96,187.26c3.37,18.76-5.57,38.54-21.19,49.22-30.81,21.14-73.5.28-75.82-37.04-1.85-32.06,28.47-59.84,60.3-51.46,18.44,4.64,33.47,20.52,36.71,39.28h0ZM238.64,187.67c-2.93-17.87-17.36-32.77-35.25-35.82-29.38-5.05-56.12,16.57-53.24,47.11,3.17,33.01,39.09,51.49,67.83,34.71,15.91-9.29,24.08-27.96,20.67-46h0Z"/>
        <path class="cls-1" d="M229.9,189.22c3.69,19.53-10.03,39.91-29.59,43.75-20.47,4.42-41.64-9.8-45-30.56-2.74-16.38,6.44-33.38,21.14-40.81,22.29-11.3,49.33,3.39,53.45,27.62h0ZM227.98,189.55c-3.22-18.71-21.67-30.83-40.1-26.94-18.38,3.62-29.74,20.25-26.23,38.66,4.76,26.1,35.95,36.68,55.85,19.16,8.53-7.62,12.58-19.64,10.49-30.88h0Z"/>
        <path class="cls-1" d="M218.85,191.17c4.59,30.45-34.66,43.64-50.01,17.06-3.03-5.62-3.79-12.44-2.15-18.6,8.02-28.16,46.39-27.37,52.16,1.54h0ZM217.3,191.44c-2-12.51-15.51-21.06-27.54-18.14-10.33,2-18.08,11.35-17.67,21.85,0,0,.11,2.12.11,2.12l.31,2.1.47,2.06.65,2.01c4.53,13.17,20.5,18.73,32.5,11.68,8.11-4.58,12.89-14.44,11.16-23.67h0Z"/>
        <path class="cls-1" d="M207.81,193.12c1.95,10.16-7.15,19.86-17.59,18.26-14.89-2.24-18.42-22.18-5.19-29.39,9.26-5.08,21.14.92,22.79,11.13h0ZM206.62,193.33c-1.05-6.82-8.46-11.44-14.97-9.34-13.35,4.39-9.94,23.7,4.11,23.24,6.83-.26,12.21-7.14,10.86-13.9h0Z"/>
      </g>
      <g>
        <path class="cls-1" d="M10.72,377.21c17.77-47.77,58.31-83.91,103.83-104.87,45.4-20.99,99.28-26.2,146.91-9.16,70.58,24.44,122.15,90.55,126.2,165.47,3.49,66.26-28.26,132.79-82.53,170.9-40.84,28.58-92.39,43.45-142.36,37.61-38.01-4.7-74.03-22.83-101.14-49.78C9.09,535.17-15.83,447.58,10.72,377.21h0ZM20.17,380.72c-12.37,34.31-17.71,72.03-9.72,108.02,13.04,60.71,61.47,108.97,118.65,130.2,34.29,12.87,72.11,18,108.34,10.74,67.44-13.51,122.73-69.81,138.09-136.42,8.37-35.75,5.02-73.56-7.04-108.04-27.1-77.2-100.02-127.91-181.65-128.31-80.39.02-139.8,49.94-166.66,123.8h0Z"/>
        <path class="cls-1" d="M21.33,381.15c16.73-45.01,54.73-79.33,97.74-98.96,40.14-18.32,87.2-24.11,129.96-11.31,67.65,19.64,119.11,79.49,126.85,149.72,8.65,77.64-36.47,155.91-107.47,187.88-58.06,27.3-125.48,26.57-178.58-11.87C25.77,551.04-6.75,455.34,21.33,381.15h0ZM30.24,384.47c-26.85,72.87-10.99,145.61,50.59,194.88,35.97,28.41,82.13,43.81,128.01,42.32,55.86-1.58,108.51-34.92,136.36-82.97,58.88-99.22,3.93-232.15-106.71-263.16-92.8-26.84-175.69,19.08-208.25,108.92h0Z"/>
        <path class="cls-1" d="M31.92,385.09c15.7-42.25,51.26-74.59,91.66-93.04,37.71-17.23,81.92-22.6,122.08-10.57,95.21,28.24,145.15,131.06,107.57,223.15-28.31,73.2-109.25,120.41-186.92,110.59-56.51-6.87-105.09-47.65-127.22-99.18-17.82-40.8-23.33-88.72-7.17-130.96h0ZM40.32,388.22c-19.41,52.93-15.86,108.43,19.16,154.03,26.27,34.32,65.96,56.99,108.1,65.11,82.08,17.18,160.93-31.78,184.25-111.92,17.29-59.49-2.04-127.41-46.96-169.75-31.05-29.81-74.23-46.43-117.24-46.64-70.17-.18-123.96,44.64-147.31,109.18h0Z"/>
        <path class="cls-1" d="M42.51,389.03c14.75-39.49,47.76-69.83,85.58-87.12,35.28-16.13,76.64-21.09,114.2-9.82,64.32,18.37,112.55,80.07,112.41,147.31-1.58,169.97-232.4,234.43-305.62,72.07-16.72-38.16-21.6-82.95-6.58-122.44h0ZM50.41,391.97c-13.99,38.19-15.78,80.66,2.2,117.89,26.05,55.4,86.45,89.17,146.73,89.72,65.38,1.41,124.22-45.2,141.85-107.53,22.2-76.36-19.49-162.01-94.01-190.48-83.84-32.55-166.44,6.07-196.76,90.4h0Z"/>
        <path class="cls-1" d="M53.09,392.97c20.94-54.99,77.65-91.12,135.22-95.6,107.32-7.11,184.85,99.72,144.53,199.68-21.15,54.76-75.61,92.55-133.69,96.98-60.29,5.47-116.64-32.33-140.05-87.14-15.58-35.51-19.97-77.19-6.01-113.93h0ZM60.51,395.73c-13,34.92-14.46,75.46,2.16,109.53,24.18,51.46,80.27,82.9,136.27,83.28,60.66,1.18,115.21-42.04,131.61-99.86,15.12-51.52-1.49-110.41-40.45-147.11-20.09-19.33-46.23-32.28-73.62-37.6-70.19-14.12-132.38,25.42-155.97,91.75h0Z"/>
        <path class="cls-1" d="M63.66,396.9c25.95-67.81,110.23-105.69,178.38-81.51,94.47,33.74,120.29,150.81,51.7,222.87-51.89,53.76-139.32,62.76-194.19,8.32-38.15-37.86-54.76-98.67-35.89-149.69h0ZM70.61,399.49c-11.19,30.24-13.18,64.99-.51,95.18,35.42,85.89,158.26,113.27,221.43,41.54,23.3-25.87,35.74-61.01,33.28-95.72-10.45-142.02-203.5-180.33-254.2-41.01h0Z"/>
        <path class="cls-1" d="M74.22,400.83c20.82-54.54,82.5-88.04,139.68-80.81,80.16,11.12,128.84,94.12,98.5,169.42-23.68,62.45-100.18,99.28-163.28,75.69-63.4-22.92-98.1-101.58-74.89-164.31h0ZM80.72,403.25c-31.97,84.31,30.51,161.86,117.41,163.22,49.5.43,93.36-32.43,109.35-78.85,15.87-44.79,2.3-97.71-32.15-130.15-22.81-21.94-54.37-34.04-86.08-34.12-50.38-.42-92.08,33.35-108.53,79.9h0Z"/>
        <path class="cls-1" d="M84.78,404.76c18.96-49.79,75.14-80.49,127.36-73.79,73.13,10.16,117.62,85.94,90.03,154.67-21.59,57.1-91.54,90.63-149.15,69.01-57.85-20.93-89.51-92.65-68.24-149.89h0ZM90.84,407.02c-29,76.5,27.92,147.46,106.89,148.42,44.96.29,84.76-29.55,99.31-71.71,24.79-73.49-29.66-149.34-107.38-149.32-46.33-.02-83.35,29.82-98.82,72.6h0Z"/>
        <path class="cls-1" d="M95.33,408.69c19.51-51.56,83.25-80.56,135.05-61.97,55.14,19.37,83.37,80.75,61.54,135.11-18.91,50.06-78.85,80.13-130.1,63.98-55.22-16.52-86.47-83.71-66.49-137.13h0ZM100.97,410.78c-20.05,53.42,5.44,106.78,58.42,126.75,52.64,19.86,108.1-4.34,127.22-57.68,17.79-49.86-8.84-108.31-58.47-127.11-53.39-20.82-107.69,4.25-127.17,58.04h0Z"/>
        <path class="cls-1" d="M105.87,412.61c9.12-24.41,29.7-43.35,53.57-53.09,21.17-8.65,45.33-10.16,67.06-2.37,42.18,14.6,68.69,59.08,60.19,103.12-7.64,43.71-45.75,75.73-89.56,78.65-24.63,1.78-49.73-7.57-67.25-24.97-26.1-25.62-36.86-66.78-24-101.35h0ZM111.1,414.55c-23.07,61.05,22.63,118.49,85.82,118.85,48.94-.04,86.94-43.05,84.05-91.3-1.6-34.44-24.21-66.84-56.64-79.12-20.13-7.98-43.5-8.84-63.83-.8-23.44,8.94-40.94,29.08-49.4,52.37h0Z"/>
        <path class="cls-1" d="M116.41,416.53c8-21.51,26.07-38.26,47.09-46.86,51.54-21.65,108.88,12.59,113.41,68.48,3.99,53.29-44.08,96.2-96.41,89.09-50.37-6.87-81.48-63.93-64.09-110.71h0ZM121.24,418.33c-20.14,53.32,19.99,103.98,75.28,104.06,42.77-.12,75.89-37.77,73.5-79.89-2.54-51.17-52.73-86.72-101.77-71.29-22.18,7.12-39.22,25.48-47.01,47.12h0Z"/>
        <path class="cls-1" d="M126.93,420.44c8.14-21.88,28.1-38.13,50.47-43.9,43.6-11.89,87.51,20.93,88.6,66.1,1.34,44.77-39.89,79.79-83.74,73.59-43.56-6.03-70.49-55.31-55.33-95.8h0ZM131.39,422.1c-13.37,35.16,4.28,72.05,39.37,84.85,34.67,13.11,72.2-3.55,84.61-38.72,17.09-49.46-25.89-98.57-77.15-88.22-21.75,4.39-39.51,21.44-46.84,42.09h0Z"/>
        <path class="cls-1" d="M137.45,424.36c8.27-22.2,30.65-37.56,54.06-39.04,43.29-2.85,75.15,40.83,59.32,81.22-15.01,39.1-67.79,53.15-98.23,22.96-16.92-16.46-23.49-42.94-15.15-65.15h0ZM141.55,425.88c-8.06,21.02-2.62,45.12,14.5,59.92,22.34,19.72,57.86,19.98,78.04-2.99,35.33-40.78-.33-102.26-53.3-92.01-18.15,3.71-33.12,17.76-39.24,35.07h0Z"/>
        <path class="cls-1" d="M147.97,428.27c6.14-16.6,21.88-28.56,39.18-31.38,37.09-6.09,66.88,30.77,53.39,65.82-12.33,32.06-55.45,43.25-80.35,18.63-13.8-13.4-19.01-35.01-12.22-53.08h0ZM151.71,429.66c-6.43,16.7-1.86,36.43,11.78,48.13,17.82,15.76,46.42,15.8,62.42-2.56,29.59-34.61-3.09-85.31-46.83-72.47-12.66,4.1-22.92,14.42-27.38,26.9h0Z"/>
        <path class="cls-1" d="M158.47,432.18c4.29-11.61,14.6-20.52,26.53-23.6,29.88-7.89,56.08,21.45,45.23,50.3-5.46,14.3-19.89,24.27-35.12,24.81-26.94,1.28-45.95-26.67-36.64-51.51h0ZM161.88,433.45c-9.95,26.78,16.08,51.95,42.59,43.18,9.24-3.16,16.55-10.84,19.77-19.98,8.02-21.81-8.48-45.13-31.76-44.95-13.61-.02-26.05,8.96-30.6,21.75h0Z"/>
        <path class="cls-1" d="M168.97,436.08c8.44-22.33,39.36-23.95,49.9-2.31,4.95,9.81,3.04,22.61-4.84,30.41-21.35,20.85-54.76.12-45.06-28.09h0ZM172.06,437.23c-6.88,18.85,12.85,36.47,30.81,28.07,10.44-5,15.29-18.5,10.68-29.1-7.99-18.34-34.37-17.82-41.48,1.03h0Z"/>
        <path class="cls-1" d="M179.46,439.99c3.64-10.23,17.09-13.9,25.43-6.72,11.46,9.72,4.44,28.57-10.58,28.43-11-.02-18.79-11.59-14.85-21.71h0ZM182.25,441.02c-3.62,9.84,6.78,18.85,15.93,14.02,8.26-4.24,8-16.51-.51-20.41-5.66-2.85-13.35.3-15.42,6.38h0Z"/>
      </g>
      <g>
        <path class="cls-1" d="M38.4,1089.97c-30.89-40.54-39.78-94.12-33.18-143.8,6.51-49.59,30.89-97.92,70.75-129.08,58.37-46.61,141.8-54.88,207.3-18.28,57.88,32.45,97.15,94.83,100.37,161.07,2.34,49.79-12.63,101.32-44.27,140.43-24.28,29.62-58.85,50.38-96.11,58.9-72.2,16.52-159.55-9.21-204.86-69.25h0ZM46.41,1083.86c22.39,28.78,51.43,53.46,86.12,65.93,58.29,21.41,124.96,6.25,173.45-30.74,29.2-22.11,53.74-51.34,66.95-85.84,24.61-64.23,6.56-141.04-41.54-189.61-25.75-26.18-59.49-43.54-95.09-51.77-79.73-18.33-161.56,16.21-205.51,85.01-42.93,67.97-32.47,144.86,15.61,207.02h0Z"/>
        <path class="cls-1" d="M47.36,1083.14c-29.11-38.2-37.83-88.66-31.43-135.52,5.96-43.73,26.22-86.6,59.88-115.91,52.74-46.69,130.84-58.22,194.35-27.22,70.25,34.17,112.3,114.13,101.41,191.23-7.93,63.67-44.58,120.28-105.44,144.64-72.75,29.81-171.05,6.17-218.77-57.21h0ZM55,1077.32c21.08,27.11,48.48,50.27,81.14,61.98,38.2,13.87,81.24,11.61,118.64-3.63,45.06-18.36,83.82-53.55,104.03-98.09,25.61-56.33,14.51-125.62-24.08-173.34-19.72-24.89-46.71-43.49-76.37-54.48-56.1-21.5-122.38-13.53-170.78,22.57-83.06,61.92-95.83,163.34-32.58,245h0Z"/>
        <path class="cls-1" d="M56.33,1076.31c-27.34-35.86-35.67-83.22-29.68-127.24,5.58-41.09,24.68-81.34,56.32-108.86,74.76-65.39,188.36-52.67,246.13,28.32,46.76,63.04,43.45,156.69-6.35,217.11-36,44.11-96.44,63.41-151.84,54.59-44.03-6.73-87.51-27.67-114.58-63.91h0ZM63.58,1070.78c34.37,44.67,83.14,71.33,140.38,66.09,43.04-3.86,83.39-25.3,112.77-56.57,58.37-60.18,59.13-153.01,3.85-215.52-41.05-46.39-108.79-66.32-168.57-50.97-41.78,10.33-78.88,37.94-102.03,74.19-37.62,59.21-28.46,128.58,13.61,182.79h0Z"/>
        <path class="cls-1" d="M65.29,1069.48c-25.57-33.53-33.49-77.78-27.91-118.97,5.22-38.46,23.15-76.08,52.75-101.82,69.91-61.13,176.23-49.24,230.32,26.41,37.53,50.63,40.61,121.65,11.45,176.98-29.53,58.03-96.27,87.46-159.52,77.26-41.21-6.24-81.72-26.05-107.1-59.87h0ZM72.17,1064.24c24.79,32.2,59.7,56.41,100.75,61.11,60.72,7.59,121.52-25.4,154.18-76.04,36.12-54.49,28.19-129.14-15.08-177.33-52.69-59.54-147.36-70.03-211.21-22.25-72.3,53.59-83.72,143.74-28.65,214.51h0Z"/>
        <path class="cls-1" d="M74.24,1062.66c-35.32-47.12-35.54-114.42-8.54-165.51,51.37-94.53,183.12-102.98,246.09-15.45,35,47.14,37.88,113.36,10.6,164.85-33.31,64.23-110.13,87.99-176.8,65.2-27.84-9.02-53.68-25.48-71.36-49.1h0ZM80.77,1057.69c22.56,29.61,55.99,52.51,93.64,56.67,56.38,7.07,112.9-23.52,143.14-70.62,33.41-50.62,26.06-119.83-14.05-164.58-35.47-40.29-94.13-57.68-145.95-44.35-27.06,6.66-51.95,21.84-71.07,42.15-49.39,51.78-49.15,125.38-5.72,180.73h0Z"/>
        <path class="cls-1" d="M83.19,1055.85c-43.49-58.23-30.43-149.8,26.48-194.51,60.36-47.88,148.6-35.78,193.46,26.97,43.57,58.04,33.12,149.63-25.09,194.05-57.89,45-150.62,31.24-194.85-26.51h0ZM89.37,1051.14c19.56,25.58,47.82,45.83,80.07,51.26,91.48,15.97,180.19-73.17,153.38-164.85-9.4-33.52-32.46-62.82-63.12-79.26-125.56-66.92-260.98,75.65-170.33,192.85h0Z"/>
        <path class="cls-1" d="M92.13,1049.03c-35.02-46.8-30.33-116.94,6.39-161.45,52.29-61.82,148.46-58.6,195.93,7.33,40.17,53.4,30.47,137.76-23.19,178.55-53.28,41.42-138.45,28.75-179.13-24.43h0ZM97.97,1044.58c54.12,72.01,152.9,60.66,200.47-11.96,26.81-41.58,22.52-96.22-8.17-134.52-29.38-37.33-81.37-54.09-127.17-42.28-30.7,7.57-57.76,27.78-74.74,54.52-27.22,42.33-20.92,95.52,9.61,134.24h0Z"/>
        <path class="cls-1" d="M101.07,1042.22c-32-42.7-27.88-106.71,5.75-147.31,47.74-56.4,135.56-53.48,178.94,6.62,36.77,48.77,27.79,125.84-21.28,163.04-48.64,37.8-126.33,26.28-163.41-22.35h0ZM106.58,1038.03c49.1,65.32,139.3,55.16,182.31-10.96,24.27-37.81,20.36-87.41-7.48-122.22-48.88-60.16-142.01-54.63-183.46,11.07-24.71,39.12-19.23,86.23,8.63,122.11h0Z"/>
        <path class="cls-1" d="M110.01,1035.42c-33.21-44.13-23.59-113.65,19.89-147.53,46.01-36.26,112.76-27.31,147.17,20.26,32.23,42.82,25.73,109.44-15.34,144.25-43.51,37.95-117.17,28.51-151.72-16.99h0ZM115.2,1031.46c34.44,45.44,92.87,52.41,138.07,18.39,44.89-33.82,54.13-93.62,19.29-138.26-32.54-41.61-96.37-50.29-138.61-18.38-46.02,34-53.77,93.13-18.75,138.25h0Z"/>
        <path class="cls-1" d="M118.93,1028.62c-15.81-20.81-20.79-48.41-16.24-73.85,4.02-22.55,15.7-43.81,33.94-58.02,34.93-27.84,86.73-26.47,119.42,4.32,32.86,29.84,39.64,79.13,18.72,117.78-11.65,21.82-32.98,38.08-57.08,43.63-35.67,8.43-76.35-4.45-98.76-33.86h0ZM123.82,1024.9c39.25,52.06,111.89,44.15,146.01-8.94,26.14-41.33,10.17-96.48-32.2-119.75-29.96-16.99-69.38-15.16-97.05,5.7-17.46,12.75-30.63,32.01-34.66,53.46-4.93,24.53,2.77,49.99,17.9,69.53h0Z"/>
        <path class="cls-1" d="M127.86,1021.82c-13.96-18.31-18.43-42.63-14.43-65.06,9.6-56.89,72.46-86.77,122.27-57.25,44.32,26.57,53.24,88,20.32,127.19-32.84,39.06-97.74,34.91-128.16-4.88h0ZM132.44,1018.33c34.22,45.43,98.25,38.62,127.85-7.91,19.71-31.21,12.05-72.62-15.86-96.2-26.98-23.14-68.69-25.13-97.23-3.61-14.25,10.42-25.22,25.77-29.5,43.05-5.77,22.52.63,46.54,14.74,64.68h0Z"/>
        <path class="cls-1" d="M136.78,1015.02c-14.2-18.65-17.23-44.32-10.1-66.38,13.32-43.25,64.64-62.86,103.43-39.54,38.51,22.86,46.23,76.4,17.56,110.22-28.39,33.74-84.68,30.23-110.9-4.3h0ZM141.07,1011.75c22.5,30.01,62.88,34.83,92.41,12.12,29.56-22.18,35.64-62.89,12.57-92.09-32.8-40.74-96.87-30.74-115.59,18.15-7.86,20.66-2.88,44.67,10.61,61.82h0Z"/>
        <path class="cls-1" d="M145.69,1008.23c-25.04-32.81-8.29-85.27,32.4-95.68,15.45-4.29,32.66-2.13,46.43,6.15,13.78,8.16,23.98,21.97,27.76,37.48,10.09,42.26-22.79,81.52-66.63,75.05-15.56-2.33-30.41-10.35-39.96-23h0ZM149.7,1005.18c13.39,17.97,36.49,26.25,58.08,19.76,28.57-8.28,47.73-38.07,39.19-67.35-15.47-51.6-86.5-54.21-106-4.04-6.5,17.26-2.57,37.29,8.73,51.63h0Z"/>
        <path class="cls-1" d="M154.6,1001.44c-10.76-14.35-12.5-33.82-5.52-50.19,14.85-34.68,61.86-40.12,84.37-9.87,20.57,27.66,7.09,70.05-27.12,78.09-18.83,4.61-39.94-2.61-51.73-18.02h0ZM158.34,998.6c7.02,9.33,17.77,15.79,29.4,17.2,14.48,1.83,29.22-4.35,38.85-15.1,14.22-15.53,14.93-39.11,1.83-55.48-22.69-28.85-68.82-19.39-78.23,16.14-3.25,12.81.03,26.89,8.15,37.25h0Z"/>
        <path class="cls-1" d="M163.51,994.66c-8.37-10.94-9.84-26.27-4.43-38.83,11.49-26.9,48.1-31.16,65.62-7.78,12.53,16.4,9.04,42.06-7.62,54.31-16.33,12.46-41.34,8.65-53.58-7.7h0ZM166.98,992.01c14.47,19.24,43.21,16.48,55.23-3.76,6.84-11.32,5.61-26.06-2.59-36.34-10.49-14-31.9-17.16-45.93-6.53-15.09,10.8-18.18,32.03-6.71,46.63h0Z"/>
        <path class="cls-1" d="M172.41,987.88c-14.45-19.18.95-46.56,25.02-43.74,19.89,2.31,30.04,24.38,20.05,41.35-9.62,16.65-33.71,17.6-45.06,2.39h0ZM175.63,985.43c12.09,15.76,37.23,8.62,39.8-10.83,1.43-11.5-7.37-22.82-18.82-24.47-19.58-2.92-33.04,19.4-20.99,35.3h0Z"/>
        <path class="cls-1" d="M181.31,981.1c-8.58-11.17.48-27.57,14.64-26.04,9.03.78,16.01,9.93,14.35,18.84-2.29,14.06-20.51,18.44-29,7.2h0ZM184.29,978.83c6.2,8.1,19.12,4.3,20.01-5.75.6-5.66-3.54-11.09-9.15-12.02-9.92-1.82-17.02,9.64-10.85,17.76h0Z"/>
      </g>
    </g>
  </g>
</svg>