<?xml version="1.0" encoding="UTF-8"?>
<svg id="Capa_2" data-name="Capa 2" xmlns="http://www.w3.org/2000/svg" viewBox="0 0 1558.05 433.17">
  <defs>
    <style>
      .cls-1 {
        fill: #025c98;
      }

      .cls-2 {
        fill: #921426;
      }

      .cls-3 {
        fill: #262626;
      }

      .cls-4 {
        fill: #efd9c6;
      }

      .cls-5 {
        fill: #dc6e00;
      }
    </style>
  </defs>
  <g id="Capa_1-2" data-name="Capa 1">
    <g>
      <g>
        <path class="cls-4" d="M323.56,326.36c-8.83,0-17.65-.91-26.47-2.74-8.83-1.83-17.35-5.02-25.56-9.59-8.22-4.56-15.68-10.65-22.37-18.26l-.91,27.39h-54.78V.43h56.6v112.29c8.52-11.26,19.78-19.7,33.78-25.33,13.99-5.63,28.3-8.44,42.91-8.44,24.04,0,43.66,5.41,58.89,16.2,15.21,10.81,26.55,25.49,34.01,44.05,7.45,18.57,11.18,39.56,11.18,62.99s-3.81,44.51-11.41,63.22c-7.61,18.72-19.33,33.55-35.15,44.51-15.83,10.96-36.06,16.43-60.71,16.43ZM313.52,276.15c15.52,0,27.77-3.57,36.75-10.73,8.97-7.15,15.36-16.35,19.17-27.62,3.8-11.26,5.71-23.28,5.71-36.06s-2.05-24.65-6.16-35.6c-4.11-10.96-10.66-19.7-19.63-26.25-8.98-6.54-21.08-9.81-36.29-9.81-13.69,0-25.33,3.5-34.92,10.5-9.59,7-16.82,16.13-21.68,27.39-4.87,11.26-7.3,22.98-7.3,35.15,0,12.78,2.2,24.73,6.62,35.83,4.41,11.11,11.41,20.08,21,26.93,9.59,6.85,21.83,10.27,36.75,10.27Z"/>
        <path class="cls-4" d="M918.29,122.54c-14.91-40.07-56.28-50.3-96.09-39.94-18.42,5.25-33.02,16.27-44.5,32.41-11.33-21.19-29.74-32.49-52.39-35.33-1.08-.13-2.15-.28-3.24-.38,0,0-.01,0-.02,0-3.45-.3-6.99-.42-10.62-.35-1.71-.02-3.41.01-5.1.08-6.96.43-14.02,1.56-21.05,3.32-10.76,3.03-20.75,8.1-29.46,15.19-.56.46-1.12.92-1.67,1.4-.12.1-.23.21-.35.31-.96.85-1.9,1.73-2.83,2.63v-19.29h-56.6v114.58c0,13.69-1.6,26.47-4.79,38.34-3.2,11.87-8.9,21.61-17.12,29.21-8.22,7.61-20.09,11.41-35.61,11.41-11.87,0-21.38-2.2-28.53-6.62-7.15-4.41-12.55-10.19-16.21-17.35-3.65-7.15-6.01-15.06-7.07-23.74-1.07-8.67-1.6-17.42-1.6-26.25v-119.6h-56.6v132.38c0,21.61,3.12,40.85,9.36,57.74,6.23,16.89,16.28,30.13,30.13,39.71,13.84,9.59,32.48,14.38,55.92,14.38,9.13,0,18.26-1.07,27.39-3.19,9.13-2.13,17.65-5.4,25.56-9.81,7.91-4.41,14.61-10.27,20.08-17.57v17.35c0,21-5.63,37.5-16.89,49.53-11.26,12.02-28.76,18.03-52.49,18.03-15.22,0-29.21-2.36-42-7.08-12.78-4.72-24.35-11.03-34.69-18.94l-20.08,45.19c14.91,11.87,31.11,20.31,48.61,25.34,17.5,5.02,35.53,7.53,54.09,7.53,21.91,0,40.4-3.12,55.46-9.36,15.06-6.24,27.31-15.22,36.75-26.93,9.43-11.72,16.28-25.87,20.54-42.45,4.26-16.59,6.39-35.07,6.39-55.46v-110.82c0-7.84.88-15.69,3.03-23.23,1.46-5.1,3.38-10.01,5.85-14.54,5.19-9.45,12.44-15.79,21.96-18.62,3.07-.91,6.37-1.47,9.93-1.64,4.97-.38,9.49,0,13.53,1.06,7.52,1.85,13.18,6,17.41,12.28,4.31,6.24,6.97,14.45,7.92,24.27.14.58.26,1.96.36,4.02.39,5.1.49,10.18.55,14.93v15.62c.16,24.89.07,58.34,0,83.86v37h56.68v-130.55c.04-14.26,2.75-29.69,9.59-42.22,7.3-13.29,18.65-20.47,34.69-20.31,15.81-.22,25.58,6.47,31.5,19.4,5.03,11.13,5.32,25.24,5.48,37.2v136.49h56.6v-153.83c0-17.65-2.59-33.24-7.76-46.79Z"/>
        <path class="cls-4" d="M1029.99,326.36c-24.35,0-44.44-5.55-60.25-16.66-15.83-11.11-27.62-25.94-35.38-44.51-7.76-18.56-11.64-39.26-11.64-62.08s4.11-44.96,12.33-63.68c8.22-18.71,20.54-33.47,36.97-44.28,16.43-10.8,36.97-16.2,61.62-16.2,9.13,0,18.03.99,26.7,2.97,8.67,1.98,16.81,5.02,24.42,9.13,7.6,4.11,13.99,9.52,19.17,16.21v-24.1h56.6v240.01h-54.78l-.91-29.67c-5.48,7.61-12.17,13.77-20.08,18.49-7.92,4.72-16.51,8.29-25.79,10.73-9.29,2.43-18.94,3.65-28.99,3.65ZM1040.49,275.23c14.61,0,26.55-3.42,35.83-10.27,9.28-6.85,16.28-15.82,21-26.93,4.71-11.11,7.08-23.05,7.08-35.83s-2.28-25.48-6.85-36.29c-4.56-10.8-11.57-19.47-21-26.02-9.44-6.54-21.45-9.81-36.06-9.81s-27.32,3.5-36.29,10.5c-8.98,7-15.45,16.05-19.4,27.16-3.96,11.11-5.93,23.21-5.93,36.29,0,9.74,1.14,18.87,3.42,27.39,2.28,8.52,5.78,16.06,10.5,22.6,4.71,6.55,11.03,11.72,18.94,15.52,7.91,3.81,17.5,5.71,28.76,5.71Z"/>
        <g>
          <path class="cls-4" d="M1267.53,150.75c-2.21,0-4.36-.25-6.45-.76-2.09-.51-4.02-1.36-5.79-2.56-1.77-1.2-3.29-2.75-4.55-4.65l-.29,7.4h-6.35v-67.06h6.73v25.32c1.9-3.1,4.44-5.34,7.63-6.73,3.19-1.39,6.53-2.09,10.01-2.09,5.06,0,9.2,1.14,12.43,3.41,3.23,2.28,5.61,5.34,7.16,9.2,1.55,3.86,2.32,8.16,2.32,12.9s-.85,9.15-2.56,13.04c-1.71,3.89-4.24,6.96-7.59,9.2-3.35,2.25-7.59,3.37-12.71,3.37ZM1267.43,144.87c3.92,0,7.05-.9,9.39-2.7,2.34-1.8,4.06-4.19,5.17-7.16,1.1-2.97,1.66-6.23,1.66-9.77s-.54-6.89-1.61-9.86c-1.08-2.97-2.82-5.36-5.22-7.16-2.4-1.8-5.57-2.7-9.49-2.7-3.6,0-6.66.98-9.15,2.94-2.5,1.96-4.38,4.46-5.65,7.49-1.27,3.04-1.9,6.17-1.9,9.39,0,3.48.58,6.7,1.75,9.67,1.17,2.97,2.99,5.36,5.45,7.16,2.47,1.8,5.66,2.7,9.58,2.7Z"/>
          <path class="cls-4" d="M1320.74,150.75c-5.25,0-9.61-1.09-13.09-3.27s-6.07-5.2-7.78-9.06c-1.71-3.86-2.56-8.25-2.56-13.18s.88-9.31,2.66-13.14c1.77-3.83,4.4-6.86,7.87-9.11,3.48-2.24,7.74-3.37,12.8-3.37,3.79,0,7.07.7,9.82,2.09,2.75,1.39,5.03,3.29,6.83,5.69,1.8,2.4,3.13,5.06,3.98,7.97.85,2.91,1.28,5.88,1.28,8.92-.06.57-.1,1.12-.1,1.66s-.03,1.06-.09,1.56h-38.32c.25,3.35,1.01,6.34,2.28,8.96,1.26,2.62,3.11,4.68,5.55,6.17,2.43,1.49,5.48,2.23,9.15,2.23,1.71,0,3.45-.2,5.22-.62,1.77-.41,3.38-1.14,4.84-2.18,1.45-1.04,2.53-2.42,3.22-4.13h7.02c-.89,2.97-2.37,5.41-4.46,7.3-2.09,1.9-4.55,3.29-7.4,4.17-2.84.88-5.75,1.33-8.73,1.33ZM1304.23,121.73h31.49c-.06-3.1-.73-5.86-1.99-8.3-1.27-2.43-3-4.36-5.22-5.79-2.21-1.42-4.93-2.13-8.16-2.13s-6.2.76-8.54,2.28c-2.34,1.52-4.13,3.51-5.36,5.98-1.23,2.47-1.98,5.12-2.23,7.97Z"/>
          <path class="cls-4" d="M1373,173.23c-3.67,0-7.26-.51-10.77-1.52-3.51-1.01-6.66-2.75-9.44-5.22l2.94-5.41c2.53,1.96,5.22,3.48,8.06,4.55,2.85,1.07,5.82,1.61,8.92,1.61,5.63,0,9.64-1.6,12.05-4.79,2.4-3.19,3.6-7.35,3.6-12.47v-7.68c-1.33,2.15-2.94,3.86-4.84,5.12-1.9,1.27-3.94,2.17-6.12,2.7-2.18.54-4.41.81-6.69.81-4.93,0-8.82-1.01-11.67-3.04-2.84-2.02-4.85-4.79-6.02-8.3-1.17-3.51-1.76-7.51-1.76-12v-27.41h6.73v25.14c0,2.47.16,4.87.47,7.21.32,2.34.95,4.44,1.9,6.31.95,1.87,2.34,3.37,4.17,4.51,1.83,1.14,4.3,1.71,7.4,1.71,3.98,0,7.16-.96,9.53-2.89,2.37-1.93,4.08-4.47,5.12-7.64,1.04-3.16,1.56-6.61,1.56-10.34v-24h6.73v50.18c0,3.67-.46,6.92-1.37,9.77-.92,2.85-2.29,5.23-4.13,7.16-1.83,1.93-4.11,3.4-6.83,4.41-2.72,1.01-5.91,1.52-9.58,1.52Z"/>
          <path class="cls-4" d="M1427.44,150.75c-5.25,0-9.64-1.09-13.18-3.27-3.54-2.18-6.18-5.2-7.92-9.06-1.74-3.86-2.61-8.25-2.61-13.18s.88-9.4,2.66-13.23c1.77-3.82,4.43-6.84,7.97-9.06,3.54-2.21,7.94-3.32,13.18-3.32s9.63,1.11,13.14,3.32c3.51,2.21,6.13,5.23,7.87,9.06,1.74,3.83,2.61,8.24,2.61,13.23s-.89,9.33-2.66,13.18c-1.77,3.86-4.41,6.88-7.92,9.06-3.51,2.18-7.89,3.27-13.14,3.27ZM1427.44,144.87c3.98,0,7.22-.87,9.72-2.61,2.5-1.74,4.35-4.09,5.55-7.07,1.2-2.97,1.8-6.29,1.8-9.96s-.6-6.99-1.8-9.96c-1.2-2.97-3.05-5.34-5.55-7.11-2.5-1.77-5.74-2.66-9.72-2.66s-7.15.89-9.67,2.66c-2.53,1.77-4.38,4.14-5.55,7.11-1.17,2.97-1.75,6.29-1.75,9.96s.58,6.99,1.75,9.96c1.17,2.97,3.02,5.33,5.55,7.07,2.53,1.74,5.75,2.61,9.67,2.61Z"/>
          <path class="cls-4" d="M1459.97,150.18v-49.99h6.55l.19,8.35c1.26-2.09,2.81-3.78,4.65-5.07,1.83-1.3,3.86-2.26,6.07-2.89,2.21-.63,4.43-.95,6.64-.95,4.81,0,8.6,1.01,11.38,3.04,2.78,2.02,4.77,4.76,5.98,8.2,1.2,3.45,1.8,7.35,1.8,11.71v27.6h-6.73v-25.42c0-2.47-.16-4.85-.47-7.16-.32-2.31-.93-4.38-1.85-6.21-.92-1.83-2.25-3.27-3.98-4.32-1.74-1.04-4.06-1.57-6.97-1.57-3.54,0-6.56.95-9.06,2.85-2.5,1.9-4.36,4.43-5.6,7.59-1.23,3.16-1.85,6.67-1.85,10.53v23.71h-6.73Z"/>
          <path class="cls-4" d="M1533.67,150.75c-5.12,0-9.29-1.14-12.52-3.42-3.23-2.28-5.6-5.33-7.11-9.15-1.52-3.83-2.28-8.11-2.28-12.85s.84-9.34,2.51-13.23c1.68-3.89,4.17-6.94,7.49-9.15,3.32-2.21,7.48-3.32,12.47-3.32,2.09,0,4.17.27,6.26.81,2.09.54,4.08,1.38,5.97,2.51,1.9,1.14,3.51,2.69,4.84,4.65v-24.47h6.73v67.06h-6.45l-.29-8.54c-1.27,2.21-2.84,3.98-4.74,5.31-1.9,1.33-3.95,2.29-6.17,2.89-2.21.6-4.46.9-6.73.9ZM1534.52,144.87c3.67,0,6.75-.9,9.25-2.7,2.5-1.8,4.39-4.22,5.69-7.26,1.29-3.04,1.94-6.36,1.94-9.96s-.62-6.95-1.85-9.86c-1.23-2.91-3.08-5.23-5.55-6.97-2.47-1.74-5.6-2.61-9.39-2.61s-6.97.9-9.34,2.7c-2.37,1.8-4.09,4.21-5.17,7.21-1.08,3-1.61,6.31-1.61,9.91,0,2.59.27,5.06.81,7.4.54,2.34,1.42,4.43,2.66,6.26,1.23,1.83,2.88,3.27,4.93,4.32,2.05,1.04,4.6,1.56,7.63,1.56Z"/>
          <path class="cls-4" d="M1244.1,244.42v-49.99h6.45l.19,7.11c1.14-1.96,2.48-3.49,4.03-4.6,1.55-1.11,3.21-1.9,4.98-2.37,1.77-.47,3.54-.71,5.31-.71,3.54,0,6.46.85,8.77,2.56,2.31,1.71,3.97,4.05,4.98,7.02.88-1.77,2.02-3.38,3.42-4.84,1.39-1.45,3.1-2.61,5.12-3.46,2.02-.85,4.33-1.28,6.92-1.28,3.67,0,6.64.77,8.92,2.32,2.28,1.55,3.94,3.65,4.98,6.31,1.04,2.66,1.56,5.66,1.56,9.01v32.91h-6.73v-29.31c0-1.83-.1-3.65-.29-5.45-.19-1.8-.63-3.45-1.33-4.93-.7-1.48-1.72-2.69-3.08-3.6-1.36-.92-3.21-1.38-5.55-1.38s-4.19.52-5.74,1.57c-1.55,1.04-2.81,2.43-3.79,4.17-.98,1.74-1.68,3.64-2.09,5.69-.41,2.06-.62,4.06-.62,6.02v27.22h-6.73v-28.65c0-1.71-.11-3.49-.33-5.36-.22-1.86-.65-3.62-1.28-5.26-.63-1.64-1.65-2.96-3.04-3.94-1.39-.98-3.22-1.47-5.5-1.47-3.29,0-5.87.9-7.73,2.7-1.86,1.8-3.18,4.08-3.94,6.83-.76,2.75-1.14,5.55-1.14,8.39v26.75h-6.73Z"/>
          <path class="cls-4" d="M1340.66,244.99c-6.96,0-12.16-1.86-15.6-5.6-3.45-3.73-5.17-9.3-5.17-16.69v-28.27h6.73v28.08c0,3.35.49,6.28,1.47,8.77.98,2.5,2.5,4.43,4.55,5.79,2.05,1.36,4.73,2.04,8.02,2.04s6.08-.66,8.2-1.99c2.12-1.33,3.65-3.24,4.6-5.74.95-2.5,1.42-5.45,1.42-8.87v-28.08h6.73v28.27c0,7.4-1.74,12.96-5.22,16.69-3.48,3.73-8.73,5.6-15.74,5.6Z"/>
          <path class="cls-4" d="M1390.07,244.99c-2.21,0-4.43-.21-6.64-.62-2.21-.41-4.3-1.12-6.26-2.13-1.96-1.01-3.62-2.37-4.98-4.08-1.36-1.71-2.29-3.79-2.8-6.26h6.92c.76,1.83,1.91,3.27,3.46,4.32,1.55,1.04,3.27,1.79,5.17,2.23,1.9.44,3.7.66,5.41.66,1.2,0,2.54-.08,4.03-.24,1.48-.16,2.89-.52,4.22-1.09,1.33-.57,2.42-1.39,3.27-2.47.85-1.07,1.28-2.5,1.28-4.27,0-1.58-.37-2.85-1.09-3.79-.73-.95-1.69-1.71-2.89-2.28-1.2-.57-2.53-.98-3.98-1.23-2.28-.5-4.71-.98-7.3-1.42-2.59-.44-4.93-1.23-7.02-2.37-1.27-.44-2.48-1-3.65-1.66-1.17-.66-2.23-1.47-3.18-2.42-.95-.95-1.71-2.09-2.28-3.42-.57-1.33-.85-2.88-.85-4.65,0-2.47.51-4.58,1.52-6.35,1.01-1.77,2.39-3.22,4.13-4.36,1.74-1.14,3.75-1.96,6.02-2.47,2.28-.51,4.68-.76,7.21-.76,3.03,0,5.83.46,8.39,1.37,2.56.92,4.71,2.29,6.45,4.13,1.74,1.83,2.83,4.14,3.27,6.92h-6.26c-.7-2.09-2.15-3.7-4.36-4.84-2.21-1.14-4.78-1.71-7.68-1.71-1.08,0-2.31.1-3.7.29-1.39.19-2.72.55-3.98,1.09-1.27.54-2.31,1.33-3.13,2.37-.82,1.04-1.23,2.45-1.23,4.22,0,1.65.41,3,1.23,4.08.82,1.08,1.96,1.91,3.42,2.51,1.45.6,3.03,1.12,4.74,1.57,2.09.44,4.38.87,6.88,1.28,2.5.41,4.57.87,6.21,1.38,2.09.63,3.86,1.49,5.31,2.56,1.45,1.08,2.56,2.39,3.32,3.94.76,1.55,1.14,3.4,1.14,5.55,0,2.91-.57,5.3-1.71,7.16-1.14,1.87-2.67,3.32-4.6,4.36-1.93,1.04-4.06,1.79-6.4,2.23-2.34.44-4.68.66-7.02.66Z"/>
          <path class="cls-4" d="M1421.18,186.37c-1.45,0-2.62-.44-3.51-1.33-.89-.88-1.33-2.05-1.33-3.51s.46-2.61,1.37-3.46c.92-.85,2.07-1.28,3.46-1.28s2.48.44,3.46,1.33c.98.89,1.47,2.02,1.47,3.41s-.47,2.63-1.42,3.51c-.95.89-2.12,1.33-3.51,1.33ZM1417.86,244.42v-49.99h6.73v49.99h-6.73Z"/>
          <path class="cls-4" d="M1456.75,244.99c-5.25,0-9.59-1.09-13.04-3.27-3.45-2.18-6.02-5.2-7.73-9.06-1.71-3.86-2.56-8.22-2.56-13.09s.88-9.15,2.66-13.04c1.77-3.89,4.43-6.97,7.97-9.25,3.54-2.28,8.03-3.41,13.47-3.41,3.22,0,6.13.52,8.73,1.56,2.59,1.04,4.77,2.59,6.55,4.65,1.77,2.06,3.03,4.6,3.79,7.64h-6.92c-1.01-2.84-2.64-4.88-4.89-6.12-2.25-1.23-4.82-1.85-7.73-1.85-3.98,0-7.21.93-9.67,2.8-2.47,1.87-4.28,4.3-5.45,7.3-1.17,3-1.75,6.25-1.75,9.72s.58,6.8,1.75,9.77c1.17,2.97,3,5.34,5.5,7.11,2.5,1.77,5.71,2.66,9.63,2.66,2.85,0,5.5-.6,7.97-1.8,2.47-1.2,4.17-3.26,5.12-6.17h7.02c-.76,3.16-2.17,5.77-4.22,7.82-2.06,2.06-4.49,3.57-7.3,4.55-2.81.98-5.77,1.47-8.87,1.47Z"/>
          <path class="cls-4" d="M1260.03,323.44c-2.15,0-4.27-.27-6.36-.81-2.09-.54-3.98-1.39-5.69-2.56-1.71-1.17-3.08-2.69-4.13-4.55-1.04-1.86-1.57-4.06-1.57-6.59,0-2.85.52-5.22,1.57-7.11,1.04-1.9,2.45-3.41,4.22-4.55,1.77-1.14,3.79-1.94,6.07-2.42,2.28-.47,4.68-.71,7.21-.71h15.84c0-3.1-.43-5.83-1.28-8.2-.85-2.37-2.25-4.25-4.17-5.64-1.93-1.39-4.51-2.09-7.73-2.09-1.71,0-3.35.19-4.93.57-1.58.38-2.99,1-4.22,1.85-1.23.85-2.2,2.01-2.89,3.46h-7.21c.57-2.21,1.53-4.08,2.89-5.6,1.36-1.52,2.95-2.73,4.79-3.65,1.83-.92,3.76-1.56,5.79-1.94,2.02-.38,3.95-.57,5.79-.57,7.08,0,12.14,2.12,15.18,6.35,3.04,4.24,4.55,9.93,4.55,17.07v27.13h-5.79l-.28-6.83c-1.39,1.9-3.05,3.38-4.98,4.46-1.93,1.08-3.97,1.83-6.12,2.28-2.15.44-4.33.66-6.54.66ZM1260.51,317.56c3.1,0,5.91-.52,8.44-1.56,2.53-1.04,4.54-2.61,6.02-4.7,1.49-2.09,2.23-4.68,2.23-7.78v-3.79h-11.19c-1.96,0-3.95.05-5.97.14-2.02.09-3.86.41-5.5.95-1.64.54-2.97,1.39-3.98,2.56-1.01,1.17-1.52,2.83-1.52,4.98s.54,3.91,1.61,5.26c1.07,1.36,2.5,2.36,4.27,2.99,1.77.63,3.64.95,5.6.95Z"/>
          <path class="cls-4" d="M1304.52,322.87l-15.46-49.99h7.49l12.71,43.63,13.09-43.63h9.48l13.19,43.63,12.42-43.63h7.59l-15.46,49.99h-9.3l-13.18-42.59-13.28,42.59h-9.3Z"/>
          <path class="cls-4" d="M1386.47,323.44c-2.15,0-4.27-.27-6.36-.81-2.09-.54-3.98-1.39-5.69-2.56-1.71-1.17-3.08-2.69-4.13-4.55-1.04-1.86-1.57-4.06-1.57-6.59,0-2.85.52-5.22,1.57-7.11s2.45-3.41,4.22-4.55c1.77-1.14,3.79-1.94,6.07-2.42,2.28-.47,4.68-.71,7.21-.71h15.84c0-3.1-.43-5.83-1.28-8.2-.85-2.37-2.25-4.25-4.17-5.64-1.93-1.39-4.51-2.09-7.73-2.09-1.71,0-3.35.19-4.93.57-1.58.38-2.99,1-4.22,1.85-1.23.85-2.2,2.01-2.89,3.46h-7.21c.57-2.21,1.53-4.08,2.89-5.6,1.36-1.52,2.95-2.73,4.79-3.65,1.83-.92,3.76-1.56,5.79-1.94,2.02-.38,3.95-.57,5.79-.57,7.08,0,12.14,2.12,15.18,6.35,3.04,4.24,4.55,9.93,4.55,17.07v27.13h-5.79l-.28-6.83c-1.39,1.9-3.05,3.38-4.98,4.46-1.93,1.08-3.97,1.83-6.12,2.28-2.15.44-4.33.66-6.54.66ZM1386.94,317.56c3.1,0,5.91-.52,8.44-1.56,2.53-1.04,4.54-2.61,6.02-4.7,1.49-2.09,2.23-4.68,2.23-7.78v-3.79h-11.19c-1.96,0-3.95.05-5.97.14-2.02.09-3.86.41-5.5.95-1.64.54-2.97,1.39-3.98,2.56-1.01,1.17-1.52,2.83-1.52,4.98s.54,3.91,1.61,5.26c1.07,1.36,2.5,2.36,4.27,2.99,1.77.63,3.64.95,5.6.95Z"/>
          <path class="cls-4" d="M1420.71,322.87v-49.99h6.45l.29,8.92c1.26-2.4,2.83-4.27,4.69-5.6,1.86-1.33,3.92-2.29,6.17-2.89,2.24-.6,4.54-.9,6.88-.9h2.09v6.17h-2.18c-4.17,0-7.57.89-10.2,2.66-2.62,1.77-4.52,4.17-5.69,7.21-1.17,3.04-1.75,6.42-1.75,10.15v24.28h-6.73Z"/>
          <path class="cls-4" d="M1473.25,323.44c-5.12,0-9.29-1.14-12.52-3.42-3.23-2.28-5.6-5.33-7.11-9.15-1.52-3.83-2.28-8.11-2.28-12.85s.84-9.34,2.51-13.23c1.68-3.89,4.17-6.94,7.49-9.15,3.32-2.21,7.48-3.32,12.47-3.32,2.09,0,4.17.27,6.26.81,2.09.54,4.08,1.38,5.97,2.51,1.9,1.14,3.51,2.69,4.84,4.65v-24.47h6.73v67.06h-6.45l-.29-8.54c-1.27,2.21-2.84,3.98-4.74,5.31-1.9,1.33-3.95,2.29-6.17,2.89-2.21.6-4.46.9-6.73.9ZM1474.1,317.56c3.67,0,6.75-.9,9.25-2.7,2.5-1.8,4.39-4.22,5.69-7.26,1.29-3.04,1.94-6.36,1.94-9.96s-.62-6.95-1.85-9.86c-1.23-2.91-3.08-5.23-5.55-6.97-2.47-1.74-5.6-2.61-9.39-2.61s-6.97.9-9.34,2.7c-2.37,1.8-4.09,4.21-5.17,7.21-1.08,3-1.61,6.31-1.61,9.91,0,2.59.27,5.06.81,7.4.54,2.34,1.42,4.43,2.66,6.26,1.23,1.83,2.88,3.27,4.93,4.32,2.05,1.04,4.6,1.56,7.63,1.56Z"/>
          <path class="cls-4" d="M1526.27,323.44c-2.21,0-4.43-.21-6.64-.62-2.21-.41-4.3-1.12-6.26-2.13-1.96-1.01-3.62-2.37-4.98-4.08-1.36-1.71-2.29-3.79-2.8-6.26h6.92c.76,1.83,1.91,3.27,3.46,4.32,1.55,1.04,3.27,1.79,5.17,2.23,1.9.44,3.7.66,5.41.66,1.2,0,2.54-.08,4.03-.24,1.48-.16,2.89-.52,4.22-1.09,1.33-.57,2.42-1.39,3.27-2.47.85-1.07,1.28-2.5,1.28-4.27,0-1.58-.37-2.85-1.09-3.79-.73-.95-1.69-1.71-2.89-2.28-1.2-.57-2.53-.98-3.98-1.23-2.28-.5-4.71-.98-7.3-1.42-2.59-.44-4.93-1.23-7.02-2.37-1.27-.44-2.48-1-3.65-1.66-1.17-.66-2.23-1.47-3.18-2.42-.95-.95-1.71-2.09-2.28-3.42-.57-1.33-.85-2.88-.85-4.65,0-2.47.51-4.58,1.52-6.35,1.01-1.77,2.39-3.22,4.13-4.36,1.74-1.14,3.75-1.96,6.02-2.47,2.28-.51,4.68-.76,7.21-.76,3.03,0,5.83.46,8.39,1.37,2.56.92,4.71,2.29,6.45,4.13,1.74,1.83,2.83,4.14,3.27,6.92h-6.26c-.7-2.09-2.15-3.7-4.36-4.84-2.21-1.14-4.78-1.71-7.68-1.71-1.08,0-2.31.1-3.7.29-1.39.19-2.72.55-3.98,1.09-1.27.54-2.31,1.33-3.13,2.37-.82,1.04-1.23,2.45-1.23,4.22,0,1.65.41,3,1.23,4.08.82,1.08,1.96,1.91,3.42,2.51,1.45.6,3.03,1.12,4.74,1.57,2.09.44,4.38.87,6.88,1.28,2.5.41,4.57.87,6.21,1.38,2.09.63,3.86,1.49,5.31,2.56,1.45,1.08,2.56,2.39,3.32,3.94.76,1.55,1.14,3.4,1.14,5.55,0,2.91-.57,5.3-1.71,7.16-1.14,1.87-2.67,3.32-4.6,4.36-1.93,1.04-4.06,1.79-6.4,2.23-2.34.44-4.68.66-7.02.66Z"/>
        </g>
        <g>
          <rect class="cls-4" x="1122.15" y="83.15" width="35.98" height="239.89"/>
          <rect class="cls-4" x="1168.8" y="83.15" width="17.99" height="239.89"/>
          <rect class="cls-4" x="1197.45" y="83.15" width="8" height="239.89"/>
          <rect class="cls-4" x="1216.11" y="83.15" width="4" height="239.89"/>
        </g>
        <g>
          <rect class="cls-4" x="194.59" y="1.19" width="35.98" height="321.85"/>
          <rect class="cls-4" x="165.93" y="1.19" width="17.99" height="321.85"/>
          <rect class="cls-4" x="147.28" y="1.19" width="8" height="321.85"/>
          <rect class="cls-4" x="132.62" y="1.19" width="4" height="321.85"/>
        </g>
      </g>
      <g>
        <g>
          <path class="cls-5" d="M73.53,9.69c10.17,8.61,15.02,22,15.25,35.08.64,36.27-39.42,57.99-69.12,36.77C8.99,73.95,1.82,61.71.7,48.67c-.74-8.68.42-17.67,4.29-25.55,3.99-7.9,10.66-14.53,18.63-18.34,15.7-7.56,36.23-6.32,49.91,4.9h0ZM72.04,11.49C52.7-4.72,27.71-1.95,11.54,17.13c-16.22,19.04-14.24,45.16,5.19,61.09,7.84,6.13,17.78,9.22,27.69,9.2,21.74.19,41.12-16.73,43.98-38.34,1.86-15.08-4.91-28.11-16.36-37.59h0Z"/>
          <path class="cls-5" d="M71.84,11.72c4.19,3.61,7.65,8.19,10,13.17,2.25,4.82,3.64,10.49,4.2,15.78.96,11.06-1.78,22.19-8.71,30.98-10.52,13.35-29.1,19.11-45.24,13.5C7.23,76.57-3.97,47.82,7.26,24.34c3.78-7.43,10.06-13.68,17.57-17.27C39.67-.07,58.92,1.13,71.84,11.72h0ZM70.46,13.39C52.32-1.84,28.62.78,13.47,18.73-1.67,36.47.09,61.46,18.39,76.21c8.41,6.61,19.41,9.44,30,8.5,18.79-1.52,35.03-17.2,37.45-35.9,1.73-14.1-4.66-26.56-15.38-35.42h0Z"/>
          <path class="cls-5" d="M70.16,13.76c11.91,10.18,16.04,27.52,12.11,42.41-2.59,10.11-9.71,18.87-18.9,23.85C31.57,96.61-1.92,66.51,6.78,32.87,10.65,17.2,25.12,6.38,40.96,5.31c10.28-.77,21.17,1.68,29.2,8.44h0ZM68.88,15.29C51.93,1.04,29.54,3.52,15.4,20.33.24,38.15,3.43,63.49,23.13,76.39c25.67,15.82,59.16-1.24,60.42-31.65.19-11.61-5.79-22.28-14.67-29.45h0Z"/>
          <path class="cls-5" d="M68.47,15.79c11.14,9.5,15.05,25.71,11.36,39.63-2.43,9.45-9.09,17.64-17.68,22.29-29.72,15.55-61.15-12.61-52.92-44.08,3.61-14.6,17.2-24.78,31.97-25.76,9.61-.72,19.77,1.61,27.27,7.92h0ZM67.3,17.2c-11.28-9.47-26.37-11.68-39.34-4.2C5.81,25.87.97,55.51,21.71,72.21c19.81,15.32,49.1,6.72,57.37-17.03,5.09-14.03-.38-28.87-11.77-37.98h0Z"/>
          <path class="cls-5" d="M66.79,17.82c10.43,8.8,14.01,23.91,10.6,36.84-2.35,8.78-8.43,16.43-16.46,20.74-27.68,14.49-56.98-11.7-49.25-41.02C17.79,10.62,48.45,3.03,66.79,17.82h0ZM65.72,19.11C46.81,3.15,21.07,12.41,12.84,34.74c-8.03,22.69,11.55,44.97,34.85,42.47,17.52-1.32,32.34-18.1,30.57-35.81-.76-8.82-5.81-16.8-12.54-22.29h0Z"/>
          <path class="cls-5" d="M65.11,19.84c9.65,8.13,13.01,22.09,9.83,34.06-2.11,8.13-7.83,15.19-15.23,19.19-25.56,13.49-52.85-10.88-45.59-37.96,5.65-21.93,34.05-29.02,50.99-15.29h0ZM64.13,21.03c-17.41-14.71-41.34-6.16-48.85,14.47-7.36,20.92,10.68,41.49,32.18,39.22,16.19-1.2,29.87-16.71,28.23-33.07-.69-8.15-5.33-15.54-11.55-20.62h0Z"/>
          <path class="cls-5" d="M63.43,21.87c8.89,7.45,11.97,20.3,9.07,31.28-1.95,7.47-7.2,13.96-14,17.65-23.6,12.38-48.61-9.91-41.93-34.91,5.3-20.17,31.24-26.66,46.86-14.02h0ZM62.54,22.94c-15.92-13.44-38.06-5.6-44.82,13.31-2.45,7.01-1.82,15.07,1.82,21.56,9.27,17.22,34.15,19.49,46.66,4.63,10.58-12.23,8.92-29.4-3.66-39.49h0Z"/>
          <path class="cls-5" d="M61.76,23.89c13.87,11.95,12.03,35.9-4.47,44.61-16.93,9.27-37.43-2.58-39.11-21.47-.7-6.98,1.19-14.25,5.67-19.71,9.04-11.04,27-12.39,37.91-3.43h0ZM60.96,24.86c-12.14-10.1-28.53-7.27-37.41,5.46-12.63,18.19,1.83,41.27,23.44,39.39,22.69-2.46,32.3-30,13.97-44.86h0Z"/>
          <path class="cls-5" d="M60.08,25.91c12.59,10.66,10.85,32.51-4.01,40.28-19.43,10.28-40.28-8.16-34.6-28.79,4.34-16.53,25.82-21.96,38.61-11.49h0ZM59.37,26.78c-12.93-11-31.4-4.5-36.76,10.98-5.45,15.59,8.17,31.11,24.15,29.45,20.4-2.1,29.1-27.18,12.61-40.43h0Z"/>
          <path class="cls-5" d="M58.41,27.93c11.28,9.5,9.72,29.02-3.56,35.97-17.38,9.22-36.08-7.26-30.93-25.74,3.86-14.68,23.13-19.67,34.49-10.23h0ZM57.77,28.7c-14.2-12.03-34.87-.11-33.7,17.78,2.71,22.06,32.87,24.92,40.33,4.18,2.83-7.93-.12-16.79-6.63-21.96h0Z"/>
          <path class="cls-5" d="M56.74,29.95c9.93,8.15,8.56,25.66-3.1,31.65-6.67,3.75-15.55,2.81-21.27-2.24-5.81-4.94-8.06-13.2-5.99-20.44,3.44-12.91,20.37-17.31,30.36-8.97h0ZM56.18,30.62c-12.41-10.52-30.63-.06-29.53,15.61.77,9.62,10.19,16.98,19.64,15.95,15.88-1.5,22.69-21.3,9.89-31.57h0Z"/>
          <path class="cls-5" d="M55.07,31.96c10.83,9.22,5.68,27.89-8.88,29.27-14.62,1.56-23.51-16.15-14.34-27.27,5.62-6.79,16.52-7.58,23.22-2h0ZM54.58,32.55c-10.58-9.02-26.41,0-25.36,13.45.69,8.23,8.73,14.53,16.82,13.69,13.67-1.26,19.49-18.31,8.53-27.14h0Z"/>
          <path class="cls-5" d="M53.4,33.97c9.16,7.73,4.84,23.48-7.45,24.67-12.41,1.37-19.9-13.65-12.1-23.03,4.75-5.72,13.93-6.37,19.55-1.64h0ZM52.98,34.48c-8.83-7.51-22.14.04-21.19,11.28.63,6.84,7.26,12.08,14.02,11.42,11.4-.97,16.29-15.36,7.17-22.7h0Z"/>
          <path class="cls-5" d="M51.74,35.98c4.62,3.8,5.41,11.13,1.66,15.84-3.72,4.9-11.51,5.78-16.16,1.66-4.73-3.96-5.35-11.6-1.39-16.2,3.89-4.64,11.32-5.16,15.89-1.29h0ZM51.38,36.41c-7.09-6-17.86.06-17.02,9.11.55,5.46,5.81,9.63,11.21,9.15,9.15-.66,13.09-12.42,5.8-18.26h0Z"/>
          <path class="cls-5" d="M50.07,37.99c5.87,4.83,3.06,14.68-4.61,15.49-7.97.99-12.65-8.66-7.62-14.55,3.01-3.57,8.73-3.94,12.22-.94h0ZM49.78,38.34c-3.25-2.82-8.62-2.16-11.14,1.25-4.37,5.26.08,13.04,6.71,12.57,6.9-.42,9.91-9.41,4.44-13.82h0Z"/>
          <path class="cls-5" d="M48.41,39.99c4.19,3.32,2.18,10.32-3.19,10.9-5.72.83-9.03-6.2-5.38-10.31,2.13-2.5,6.15-2.72,8.57-.59h0ZM48.18,40.27c-5.48-4.22-12.13,3.61-6.73,8.12,5.49,4.35,11.93-3.49,6.73-8.12h0Z"/>
          <path class="cls-5" d="M46.75,42c3.57,3.09-.75,8.56-4.63,5.58-3.65-3.26.93-8.52,4.63-5.58h0ZM46.57,42.21c-2.96-2.26-6.19,1.9-3.49,4.22,2.75,2.23,6.27-1.75,3.49-4.22h0Z"/>
        </g>
        <g>
          <path class="cls-1" d="M70.37,59.11c10.88,7.68,16.89,20.6,18.26,33.61,3.81,36.08-34.19,61.22-65.63,42.68-11.29-6.62-19.51-18.19-21.76-31.09-1.5-8.59-1.12-17.64,2.04-25.83,3.28-8.22,9.34-15.4,16.95-19.9,14.98-8.9,35.54-9.47,50.15.52h0ZM69.04,61.03c-20.64-14.45-45.37-9.49-59.77,10.92-14.49,20.38-10.24,46.23,10.52,60.4,8.35,5.42,18.52,7.63,28.39,6.74,21.68-1.72,39.49-20.27,40.45-42.04.53-15.18-7.35-27.57-19.59-36.02h0Z"/>
          <path class="cls-1" d="M68.86,61.28c4.49,3.23,8.34,7.49,11.11,12.25,2.67,4.6,4.54,10.13,5.57,15.35,1.93,10.93.17,22.26-5.96,31.62-9.31,14.22-27.32,21.58-43.88,17.41-25.53-6.39-39.2-34.04-30.07-58.41,3.12-7.73,8.82-14.5,15.99-18.74,14.15-8.42,33.43-8.91,47.24.51h0ZM67.63,63.06c-19.4-13.58-42.78-8.9-56.3,10.31-13.53,19-9.59,43.74,9.93,56.83,8.96,5.85,20.16,7.71,30.63,5.85,18.59-3.16,33.39-20.2,34.17-39.04.49-14.2-6.96-26.05-18.43-33.94h0Z"/>
          <path class="cls-1" d="M67.36,63.46c12.75,9.1,18.39,26.01,15.78,41.19-1.69,10.3-8.02,19.65-16.74,25.41C36.18,149.37.18,122.32,5.91,88.05c2.48-15.95,15.94-27.99,31.63-30.45,10.17-1.67,21.23-.18,29.82,5.86h0ZM66.23,65.1c-18.14-12.71-40.22-8.29-52.83,9.69C-.15,93.88,5.24,118.84,26,129.97c26.96,13.51,58.82-6.42,57.41-36.82-.82-11.58-7.72-21.69-17.19-28.05h0Z"/>
          <path class="cls-1" d="M65.86,65.63c11.92,8.49,17.24,24.29,14.78,38.48-1.59,9.63-7.51,18.37-15.66,23.76-28.25,18.09-62.02-7.21-56.57-39.28,2.32-14.86,14.96-26.19,29.59-28.46,9.51-1.56,19.84-.13,27.86,5.5h0ZM64.82,67.14c-12.07-8.45-27.29-9.32-39.55-.74-20.94,14.76-23.17,44.71-1.05,59.53,21.07,13.53,49.5,2.4,55.65-21.99,3.84-14.42-2.91-28.73-15.05-36.8h0Z"/>
          <path class="cls-1" d="M64.37,67.8c11.16,7.85,16.05,22.59,13.78,35.78-1.58,8.96-6.96,17.1-14.58,22.1-26.3,16.85-57.78-6.67-52.66-36.55,4.01-24.21,33.88-34.45,53.45-21.33h0ZM63.41,69.18c-20.23-14.25-45.07-2.77-51.31,20.2-6.01,23.3,15.44,43.79,38.43,39.26,17.34-2.85,30.63-20.86,27.32-38.35-1.53-8.72-7.26-16.23-14.44-21.11h0Z"/>
          <path class="cls-1" d="M62.87,69.96c10.32,7.25,14.89,20.87,12.78,33.07-1.39,8.28-6.47,15.82-13.49,20.45-24.28,15.68-53.6-6.21-48.74-33.83,3.69-22.32,31.4-31.9,49.45-19.7h0ZM62,71.23c-18.63-13.13-41.72-2.52-47.4,18.69-5.5,21.49,14.27,40.4,35.48,36.25,16.02-2.62,28.29-19.26,25.23-35.41-1.41-8.06-6.67-15.01-13.32-19.53h0Z"/>
          <path class="cls-1" d="M61.37,72.13c9.51,6.64,13.7,19.17,11.77,30.37-1.28,7.61-5.95,14.54-12.4,18.8-22.42,14.4-49.29-5.62-44.82-31.1,3.51-20.56,28.78-29.29,45.45-18.07h0ZM60.58,73.27c-17.04-11.99-38.41-2.25-43.49,17.18-1.82,7.2-.5,15.17,3.7,21.32,10.75,16.34,35.73,16.42,46.89.53,9.47-13.1,6.31-30.06-7.11-39.02h0Z"/>
          <path class="cls-1" d="M59.88,74.29c14.86,10.69,15.12,34.71-.55,44.83-16.05,10.71-37.51.71-40.84-17.96-1.31-6.89-.07-14.3,3.92-20.13,8.04-11.79,25.81-14.7,37.47-6.73h0ZM59.17,75.32c-13.85-9.61-31-4-37.91,10.94-8.77,18.93,7.88,38.63,27.92,34.96,22.38-4.44,29.55-32.71,9.99-45.91h0Z"/>
          <path class="cls-1" d="M58.39,76.45c13.47,9.52,13.66,31.44-.47,40.48-18.45,11.94-40.84-4.6-36.98-25.65,2.87-16.85,23.8-24.14,37.46-14.83h0ZM57.75,77.37c-13.84-9.83-31.67-1.73-35.66,14.15-2.4,8.9,1.81,18.86,9.48,23.76,10.14,6.86,24.96,4.21,31.97-5.86,7.77-10.6,5.15-24.79-5.78-32.05h0Z"/>
          <path class="cls-1" d="M56.9,78.61c12.06,8.47,12.23,28.06-.4,36.14-16.51,10.7-36.57-4.07-33.06-22.93,2.56-14.96,21.32-21.62,33.46-13.21h0ZM56.33,79.42c-15.2-10.74-34.74,2.95-32.02,20.66,1.84,10.95,13.26,18.29,23.96,16.19,8.64-1.42,15.77-8.85,16.98-17.55,1.16-7.56-2.62-15.13-8.92-19.3h0Z"/>
          <path class="cls-1" d="M55.41,80.76c10.6,7.25,10.77,24.82-.32,31.8-6.32,4.32-15.25,4.16-21.39-.37-6.22-4.41-9.19-12.44-7.76-19.84,2.3-13.16,18.77-19.02,29.46-11.59h0ZM54.91,81.48c-13.28-9.39-30.52,2.62-28.05,18.14,1.61,9.52,11.64,16.02,20.96,14.18,15.69-2.88,20.74-23.2,7.09-32.31h0Z"/>
          <path class="cls-1" d="M53.93,82.91c11.6,8.23,8.1,27.28-6.28,29.93-14.43,2.84-24.83-14.03-16.67-25.91,5.01-7.26,15.79-8.99,22.95-4.02h0ZM53.49,83.54c-11.33-8.06-26.31,2.31-24.08,15.62,1.41,8.14,9.97,13.71,17.96,12.16,13.5-2.45,17.81-19.94,6.13-27.78h0Z"/>
          <path class="cls-1" d="M52.44,85.06c9.8,6.9,6.87,22.97-5.26,25.23-12.24,2.45-21.01-11.86-14.07-21.88,4.23-6.11,13.32-7.56,19.33-3.35h0ZM52.07,85.6c-9.45-6.7-22.05,1.98-20.12,13.09,1.23,6.76,8.29,11.4,14.96,10.15,11.28-1.96,14.89-16.73,5.16-23.24h0Z"/>
          <path class="cls-1" d="M50.96,87.21c4.93,3.38,6.37,10.61,3.04,15.63-3.28,5.2-10.96,6.77-15.95,3.07-5.06-3.53-6.35-11.09-2.8-16.02,3.47-4.96,10.83-6.14,15.71-2.68h0ZM50.64,87.66c-7.59-5.35-17.79,1.63-16.15,10.56,1.72,8.69,13.51,11.28,18.64,4.01,3.49-4.43,2.3-11.53-2.49-14.58h0Z"/>
          <path class="cls-1" d="M49.48,89.35c6.27,4.3,4.33,14.35-3.23,15.83-7.86,1.69-13.36-7.52-8.86-13.82,2.69-3.82,8.35-4.69,12.1-2.01h0ZM49.22,89.73c-5.71-4.02-13.52,1.3-12.19,8.03.82,4.02,4.97,6.78,8.98,6.12,6.84-1.02,9.04-10.25,3.21-14.15h0Z"/>
          <path class="cls-1" d="M48,91.5c4.46,2.94,3.07,10.09-2.22,11.14-5.63,1.32-9.54-5.39-6.26-9.8,1.9-2.67,5.88-3.25,8.48-1.34h0ZM47.79,91.8c-5.83-3.72-11.77,4.66-6,8.68,5.85,3.86,11.57-4.52,6-8.68h0Z"/>
          <path class="cls-1" d="M46.52,93.64c3.83,2.77,0,8.59-4.12,5.97-3.92-2.93.18-8.57,4.12-5.97h0ZM46.36,93.87c-3.15-1.99-6,2.43-3.11,4.5,2.94,1.98,6.09-2.29,3.11-4.5h0Z"/>
        </g>
        <g>
          <path class="cls-2" d="M17.19,124.07c10.68-7.96,24.82-9.67,37.62-6.93,35.48,7.57,47.6,51.49,20.22,75.63-9.8,8.68-23.34,12.9-36.3,11.05-8.63-1.24-17.12-4.4-23.92-9.95-6.79-5.67-11.75-13.66-13.66-22.29-3.82-17,2.02-36.72,16.05-47.51h0ZM18.61,125.93c-20.15,15.18-23.1,40.15-8.16,60.21,14.87,20.1,40.79,24.07,60.68,8.74,7.75-6.26,13-15.24,15.22-24.9,5.09-21.14-7.02-43.83-27.42-51.5-14.27-5.22-28.5-1.56-40.32,7.45h0Z"/>
          <path class="cls-2" d="M18.79,126.18c4.46-3.25,9.71-5.62,15.09-6.76,5.2-1.11,11.04-1.17,16.32-.53,10.99,1.56,21.22,6.74,28.21,15.48,10.63,13.26,12.04,32.67,2.94,47.12-13.99,22.29-44.52,26.71-64.85,10.46-6.38-5.36-11.05-12.88-12.86-21.02-3.61-16.07,1.9-34.55,15.14-44.75h0ZM20.1,127.9c-18.93,14.23-21.73,37.91-7.67,56.72,13.86,18.75,38.6,22.69,57.11,8.18,8.34-6.7,13.58-16.77,15.06-27.3,2.76-18.65-8.85-38.01-26.52-44.59-13.35-4.87-26.92-1.46-37.98,6.99h0Z"/>
          <path class="cls-2" d="M20.39,128.28c12.6-9.3,30.43-9.41,44.05-2.23,9.27,4.8,16.19,13.72,18.96,23.8,8.99,34.72-27.9,60.56-58.7,44.48-14.39-7.3-21.67-23.84-19.13-39.51,1.57-10.18,6.42-20.24,14.82-26.54h0ZM21.6,129.87c-17.71,13.3-20.36,35.67-7.17,53.23,13.97,18.8,39.32,21.41,56.37,5.13,21.2-21.44,12.15-57.91-17.19-66-11.26-2.81-23.01.61-32,7.64h0Z"/>
          <path class="cls-2" d="M21.99,130.38c11.77-8.7,28.44-8.85,41.17-2.12,8.66,4.5,15.14,12.84,17.73,22.26,8.44,32.47-26.09,56.72-54.89,41.6-13.41-6.82-20.26-22.35-17.88-36.96,1.46-9.52,6.03-18.9,13.88-24.78h0ZM23.11,131.84c-11.77,8.85-17.33,23.05-12.97,37.37,7.54,24.49,35.31,35.9,56.27,19.46,19.4-15.84,17.63-46.31-3.64-59.73-12.47-8.12-28.26-6.14-39.66,2.89h0Z"/>
          <path class="cls-2" d="M23.59,132.47c10.92-8.17,26.46-8.25,38.29-2,8.02,4.28,14.1,11.93,16.49,20.71,7.86,30.23-24.26,52.86-51.08,38.72-12.43-6.33-18.85-20.85-16.62-34.4,1.36-8.86,5.64-17.56,12.93-23.03h0ZM24.61,133.81c-19.82,14.82-16.61,41.98,3.28,55.04,20.29,12.94,46.42-1.09,49.25-24.36,2.67-17.36-10.33-35.59-27.98-37.86-8.77-1.25-17.68,1.87-24.55,7.18h0Z"/>
          <path class="cls-2" d="M25.19,134.57c10.1-7.56,24.46-7.69,35.4-1.89,7.44,3.89,13.03,11.06,15.26,19.17,7.37,27.95-22.53,49.03-47.28,35.84-20.09-10.45-20.58-39.73-3.39-53.12h0ZM26.11,135.79c-18.26,13.64-15.34,38.88,3.06,50.86,18.66,11.91,42.88-1.08,45.47-22.49,2.48-16.04-9.53-32.87-25.84-34.97-8.1-1.16-16.34,1.69-22.7,6.6h0Z"/>
          <path class="cls-2" d="M26.78,136.66c9.26-6.98,22.48-7.08,32.52-1.77,6.84,3.58,11.97,10.17,14.03,17.62,6.74,25.78-20.63,45.11-43.47,32.96-18.46-9.72-18.91-36.45-3.08-48.82h0ZM27.62,137.77c-16.69,12.47-14.05,35.81,2.84,46.67,6.28,3.97,14.27,5.18,21.41,3.09,18.87-5.15,26.7-28.87,15.04-44.41-9.48-13.06-26.67-15.33-39.3-5.35h0Z"/>
          <path class="cls-2" d="M28.37,138.75c14.78-10.81,37.69-3.61,42.44,14.43,5.2,18.58-10.96,35.88-29.74,33.25-6.96-.9-13.61-4.37-17.92-9.97-8.72-11.3-5.97-29.1,5.22-37.71h0ZM29.13,139.75c-12.58,9.55-13.52,26.15-3.12,37.67,14.87,16.41,40.61,7.54,43.67-13.94,2.73-22.65-21.95-38.24-40.54-23.74h0Z"/>
          <path class="cls-2" d="M29.96,140.84c13.23-9.86,34.12-3.23,38.34,13.01,5.63,21.25-17.04,37.4-35.86,27.2-15.13-7.96-15.56-30.11-2.48-40.21h0ZM30.64,141.73c-13.63,10.11-11.47,29.57,2.39,38.29,13.95,8.83,32.15-.94,34.15-16.88,2.56-20.35-19.91-34.49-36.54-21.42h0Z"/>
          <path class="cls-2" d="M31.55,142.92c11.8-8.84,30.47-2.92,34.23,11.59,5.06,19.01-15.21,33.51-32.05,24.32-13.43-7.07-13.94-26.97-2.18-35.91h0ZM32.15,143.72c-14.93,11.13-7.98,33.93,9.71,36.85,22.1,2.34,31.7-26.39,13.18-38.35-7.08-4.54-16.39-3.68-22.89,1.5h0Z"/>
          <path class="cls-2" d="M33.14,145.01c10.18-7.83,26.93-2.54,30.13,10.17,2.15,7.35-.77,15.79-6.99,20.22-6.12,4.55-14.68,4.87-21.26,1.22-11.8-6.27-12.26-23.75-1.88-31.61h0ZM33.67,145.7c-13.05,9.71-6.98,29.82,8.54,32.29,9.55,1.43,18.84-6.09,19.98-15.53,2.12-15.81-15.62-26.92-28.52-16.77h0Z"/>
          <path class="cls-2" d="M34.72,147.09c11.42-8.47,28.45.76,26.51,15.26-1.78,14.59-21.04,19.26-29.81,7.81-5.34-7.01-3.65-17.8,3.3-23.07h0ZM35.18,147.69c-6.96,5.02-8.09,15.11-2.76,21.7,8.38,11.08,25.26,6.21,27.27-7.26,1.86-13.6-13.44-23.12-24.51-14.44h0Z"/>
          <path class="cls-2" d="M36.3,149.17c9.6-7.18,23.97.59,22.35,12.83-1.47,12.4-17.79,16.3-25.17,6.59-4.5-5.92-3.06-15.01,2.81-19.42h0ZM36.7,149.69c-9.31,6.91-4.96,21.58,6.2,23.19,6.81.93,13.41-4.34,14.29-11.08,1.63-11.33-11.29-19.34-20.49-12.11h0Z"/>
          <path class="cls-2" d="M37.89,151.24c7.89-5.91,19.42.46,18.2,10.4-1.14,10.2-14.54,13.34-20.52,5.36-3.64-4.83-2.47-12.2,2.33-15.77h0ZM38.22,151.68c-4.61,3.3-5.4,10.38-1.79,14.66,5.53,7.31,16.92,3.97,18.27-4.88,1.42-9.06-9.14-15.55-16.48-9.78h0Z"/>
          <path class="cls-2" d="M39.47,153.32c6.03-4.62,14.99.34,14.05,7.98-.83,7.99-11.29,10.37-15.89,4.14-2.8-3.74-1.87-9.4,1.84-12.12h0ZM39.74,153.68c-3.48,2.53-4.05,7.91-1.3,11.14,4.14,5.44,12.72,2.87,13.76-3.69,1.15-6.82-6.93-11.78-12.46-7.44h0Z"/>
          <path class="cls-2" d="M41.04,155.39c4.18-3.33,10.55.21,9.9,5.56-.49,5.76-8.08,7.4-11.26,2.91-1.95-2.64-1.26-6.6,1.36-8.48h0ZM41.26,155.68c-5.35,4.39.78,12.63,6.39,8.39,5.48-4.36-.7-12.4-6.39-8.39h0Z"/>
          <path class="cls-2" d="M42.62,157.46c3.82-2.78,8.17,2.66,4.39,5.77-4,2.81-8.09-2.83-4.39-5.77h0ZM42.79,157.68c-2.87,2.35.48,6.47,3.32,4.36,2.79-2.21-.27-6.49-3.32-4.36h0Z"/>
        </g>
        <g>
          <path class="cls-3" d="M17.19,184.23c10.68-7.96,24.82-9.67,37.62-6.93,35.48,7.57,47.6,51.49,20.22,75.63-9.8,8.68-23.34,12.9-36.3,11.05-8.63-1.24-17.12-4.4-23.92-9.95-6.79-5.67-11.75-13.66-13.66-22.29-3.82-17,2.02-36.72,16.05-47.51h0ZM18.61,186.09c-20.15,15.18-23.1,40.15-8.16,60.21,14.87,20.1,40.79,24.07,60.68,8.74,7.75-6.26,13-15.24,15.22-24.9,5.09-21.14-7.02-43.83-27.42-51.5-14.27-5.22-28.5-1.56-40.32,7.45h0Z"/>
          <path class="cls-3" d="M18.79,186.33c4.46-3.25,9.71-5.62,15.09-6.76,5.2-1.11,11.04-1.17,16.32-.53,10.99,1.56,21.22,6.74,28.21,15.48,10.63,13.26,12.04,32.67,2.94,47.12-13.99,22.29-44.52,26.71-64.85,10.46-6.38-5.36-11.05-12.88-12.86-21.02-3.61-16.07,1.9-34.55,15.14-44.75h0ZM20.1,188.05c-18.93,14.23-21.73,37.91-7.67,56.72,13.86,18.75,38.6,22.69,57.11,8.18,8.34-6.7,13.58-16.77,15.06-27.3,2.76-18.65-8.85-38.01-26.52-44.59-13.35-4.87-26.92-1.46-37.98,6.99h0Z"/>
          <path class="cls-3" d="M20.39,188.43c12.6-9.3,30.43-9.41,44.05-2.23,9.27,4.8,16.19,13.72,18.96,23.8,8.99,34.72-27.9,60.56-58.7,44.48-14.39-7.3-21.67-23.84-19.13-39.51,1.57-10.18,6.42-20.24,14.82-26.54h0ZM21.6,190.02c-17.71,13.3-20.36,35.67-7.17,53.23,13.97,18.8,39.32,21.41,56.37,5.13,21.2-21.44,12.15-57.91-17.19-66-11.26-2.81-23.01.61-32,7.64h0Z"/>
          <path class="cls-3" d="M21.99,190.53c11.77-8.7,28.44-8.85,41.17-2.12,8.66,4.5,15.14,12.84,17.73,22.26,8.44,32.47-26.09,56.72-54.89,41.6-13.41-6.82-20.26-22.35-17.88-36.96,1.46-9.52,6.03-18.9,13.88-24.78h0ZM23.11,191.99c-11.77,8.85-17.33,23.05-12.97,37.37,7.54,24.49,35.31,35.9,56.27,19.46,19.4-15.84,17.63-46.31-3.64-59.73-12.47-8.12-28.26-6.14-39.66,2.89h0Z"/>
          <path class="cls-3" d="M23.59,192.63c10.92-8.17,26.46-8.25,38.29-2,8.02,4.28,14.1,11.93,16.49,20.71,7.86,30.23-24.26,52.86-51.08,38.72-12.43-6.33-18.85-20.85-16.62-34.4,1.36-8.86,5.64-17.56,12.93-23.03h0ZM24.61,193.97c-19.82,14.82-16.61,41.98,3.28,55.04,20.29,12.94,46.42-1.09,49.25-24.36,2.67-17.36-10.33-35.59-27.98-37.86-8.77-1.25-17.68,1.87-24.55,7.18h0Z"/>
          <path class="cls-3" d="M25.19,194.72c10.1-7.56,24.46-7.69,35.4-1.89,7.44,3.89,13.03,11.06,15.26,19.17,7.37,27.95-22.53,49.03-47.28,35.84-20.09-10.45-20.58-39.73-3.39-53.12h0ZM26.11,195.94c-18.26,13.64-15.34,38.88,3.06,50.86,18.66,11.91,42.88-1.08,45.47-22.49,2.48-16.04-9.53-32.87-25.84-34.97-8.1-1.16-16.34,1.69-22.7,6.6h0Z"/>
          <path class="cls-3" d="M26.78,196.82c9.26-6.98,22.48-7.08,32.52-1.77,6.84,3.58,11.97,10.17,14.03,17.62,6.74,25.78-20.63,45.11-43.47,32.96-18.46-9.72-18.91-36.45-3.08-48.82h0ZM27.62,197.92c-16.69,12.47-14.05,35.81,2.84,46.67,6.28,3.97,14.27,5.18,21.41,3.09,18.87-5.15,26.7-28.87,15.04-44.41-9.48-13.06-26.67-15.33-39.3-5.35h0Z"/>
          <path class="cls-3" d="M28.37,198.91c14.78-10.81,37.69-3.61,42.44,14.43,5.2,18.58-10.96,35.88-29.74,33.25-6.96-.9-13.61-4.37-17.92-9.97-8.72-11.3-5.97-29.1,5.22-37.71h0ZM29.13,199.9c-12.58,9.55-13.52,26.15-3.12,37.67,14.87,16.41,40.61,7.54,43.67-13.94,2.73-22.65-21.95-38.24-40.54-23.74h0Z"/>
          <path class="cls-3" d="M29.96,200.99c13.23-9.86,34.12-3.23,38.34,13.01,5.63,21.25-17.04,37.4-35.86,27.2-15.13-7.96-15.56-30.11-2.48-40.21h0ZM30.64,201.89c-13.63,10.11-11.47,29.57,2.39,38.29,13.95,8.83,32.15-.94,34.15-16.88,2.56-20.35-19.91-34.49-36.54-21.42h0Z"/>
          <path class="cls-3" d="M31.55,203.08c11.8-8.84,30.47-2.92,34.23,11.59,5.06,19.01-15.21,33.51-32.05,24.32-13.43-7.07-13.94-26.97-2.18-35.91h0ZM32.15,203.87c-14.93,11.13-7.98,33.93,9.71,36.85,22.1,2.34,31.7-26.39,13.18-38.35-7.08-4.54-16.39-3.68-22.89,1.5h0Z"/>
          <path class="cls-3" d="M33.14,205.16c10.18-7.83,26.93-2.54,30.13,10.17,2.15,7.35-.77,15.79-6.99,20.22-6.12,4.55-14.68,4.87-21.26,1.22-11.8-6.27-12.26-23.75-1.88-31.61h0ZM33.67,205.86c-13.05,9.71-6.98,29.82,8.54,32.29,9.55,1.43,18.84-6.09,19.98-15.53,2.12-15.81-15.62-26.92-28.52-16.77h0Z"/>
          <path class="cls-3" d="M34.72,207.24c11.42-8.47,28.45.76,26.51,15.25-1.78,14.59-21.04,19.26-29.81,7.81-5.34-7.01-3.65-17.8,3.3-23.07h0ZM35.18,207.85c-6.96,5.02-8.09,15.11-2.76,21.7,8.38,11.08,25.26,6.21,27.27-7.26,1.86-13.6-13.44-23.12-24.51-14.44h0Z"/>
          <path class="cls-3" d="M36.3,209.32c9.6-7.18,23.97.59,22.35,12.83-1.47,12.4-17.79,16.3-25.17,6.59-4.5-5.92-3.06-15.01,2.81-19.42h0ZM36.7,209.84c-9.31,6.91-4.96,21.58,6.2,23.19,6.81.93,13.41-4.34,14.29-11.08,1.63-11.33-11.29-19.34-20.49-12.11h0Z"/>
          <path class="cls-3" d="M37.89,211.4c7.89-5.91,19.42.46,18.2,10.4-1.14,10.2-14.54,13.34-20.52,5.36-3.64-4.83-2.47-12.2,2.33-15.77h0ZM38.22,211.84c-4.61,3.3-5.4,10.38-1.79,14.66,5.53,7.31,16.92,3.97,18.27-4.88,1.42-9.06-9.14-15.55-16.48-9.78h0Z"/>
          <path class="cls-3" d="M39.47,213.47c6.03-4.62,14.99.34,14.05,7.98-.83,7.99-11.29,10.37-15.89,4.14-2.8-3.74-1.87-9.4,1.84-12.12h0ZM39.74,213.83c-3.48,2.53-4.05,7.91-1.3,11.14,4.14,5.44,12.72,2.87,13.76-3.69,1.15-6.82-6.93-11.78-12.46-7.44h0Z"/>
          <path class="cls-3" d="M41.04,215.54c4.18-3.33,10.55.21,9.9,5.56-.49,5.76-8.08,7.4-11.26,2.91-1.95-2.64-1.26-6.6,1.36-8.48h0ZM41.26,215.83c-5.35,4.39.78,12.63,6.39,8.39,5.48-4.36-.7-12.4-6.39-8.39h0Z"/>
          <path class="cls-3" d="M42.62,217.61c3.82-2.78,8.17,2.66,4.39,5.77-4,2.81-8.09-2.83-4.39-5.77h0ZM42.79,217.83c-2.87,2.35.48,6.47,3.32,4.36,2.79-2.21-.27-6.49-3.32-4.36h0Z"/>
        </g>
        <g>
          <path class="cls-4" d="M17.19,242.89c10.68-7.96,24.82-9.67,37.62-6.93,35.48,7.56,47.6,51.49,20.22,75.63-9.8,8.68-23.34,12.9-36.3,11.05-8.63-1.24-17.12-4.4-23.92-9.95-6.79-5.67-11.75-13.66-13.66-22.29-3.82-17,2.02-36.72,16.05-47.51h0ZM18.61,244.75c-20.15,15.18-23.1,40.15-8.16,60.21,14.87,20.1,40.79,24.07,60.68,8.74,7.75-6.26,13-15.24,15.22-24.9,5.09-21.14-7.02-43.83-27.42-51.5-14.27-5.21-28.5-1.56-40.32,7.45h0Z"/>
          <path class="cls-4" d="M18.79,245c4.46-3.25,9.71-5.62,15.09-6.76,5.2-1.11,11.04-1.17,16.32-.53,10.99,1.56,21.22,6.74,28.21,15.48,10.63,13.26,12.04,32.67,2.94,47.12-13.99,22.29-44.52,26.71-64.85,10.46-6.38-5.36-11.05-12.88-12.86-21.02-3.61-16.07,1.9-34.55,15.14-44.75h0ZM20.1,246.72c-18.93,14.23-21.73,37.91-7.67,56.72,13.86,18.75,38.6,22.69,57.11,8.18,8.34-6.7,13.58-16.77,15.06-27.3,2.76-18.65-8.85-38.01-26.52-44.59-13.35-4.87-26.92-1.46-37.98,6.99h0Z"/>
          <path class="cls-4" d="M20.39,247.1c12.6-9.3,30.43-9.41,44.05-2.23,9.27,4.8,16.19,13.72,18.96,23.8,8.99,34.72-27.9,60.56-58.7,44.48-14.39-7.3-21.67-23.84-19.13-39.51,1.57-10.18,6.42-20.24,14.82-26.54h0ZM21.6,248.69c-17.71,13.3-20.36,35.67-7.17,53.23,13.97,18.8,39.32,21.41,56.37,5.13,21.2-21.44,12.15-57.91-17.19-66-11.26-2.81-23.01.61-32,7.64h0Z"/>
          <path class="cls-4" d="M21.99,249.2c11.77-8.7,28.44-8.85,41.17-2.12,8.66,4.5,15.14,12.84,17.73,22.26,8.44,32.47-26.09,56.72-54.89,41.6-13.41-6.82-20.26-22.35-17.88-36.96,1.46-9.52,6.03-18.9,13.88-24.78h0ZM23.11,250.66c-11.77,8.85-17.33,23.05-12.97,37.37,7.54,24.49,35.31,35.9,56.27,19.46,19.4-15.84,17.63-46.31-3.64-59.73-12.47-8.12-28.26-6.14-39.66,2.89h0Z"/>
          <path class="cls-4" d="M23.59,251.3c10.92-8.17,26.46-8.25,38.29-2,8.02,4.28,14.1,11.93,16.49,20.71,7.86,30.23-24.26,52.86-51.08,38.72-12.43-6.33-18.85-20.85-16.62-34.4,1.36-8.86,5.64-17.56,12.93-23.03h0ZM24.61,252.63c-19.82,14.82-16.61,41.98,3.28,55.04,20.29,12.94,46.42-1.09,49.25-24.36,2.67-17.36-10.33-35.59-27.98-37.86-8.77-1.25-17.68,1.87-24.55,7.18h0Z"/>
          <path class="cls-4" d="M25.19,253.39c10.1-7.56,24.46-7.69,35.4-1.89,7.44,3.89,13.03,11.06,15.26,19.17,7.37,27.95-22.53,49.03-47.28,35.84-20.09-10.45-20.58-39.73-3.39-53.12h0ZM26.11,254.61c-18.26,13.64-15.34,38.88,3.06,50.86,18.66,11.91,42.88-1.08,45.47-22.49,2.48-16.04-9.53-32.87-25.84-34.97-8.1-1.16-16.34,1.69-22.7,6.6h0Z"/>
          <path class="cls-4" d="M26.78,255.48c9.26-6.98,22.48-7.08,32.52-1.77,6.84,3.58,11.97,10.17,14.03,17.62,6.74,25.78-20.63,45.11-43.47,32.96-18.46-9.72-18.91-36.45-3.08-48.82h0ZM27.62,256.59c-16.69,12.47-14.05,35.81,2.84,46.67,6.28,3.97,14.27,5.18,21.41,3.09,18.87-5.15,26.7-28.87,15.04-44.41-9.48-13.06-26.67-15.33-39.3-5.35h0Z"/>
          <path class="cls-4" d="M28.37,257.57c14.78-10.81,37.69-3.61,42.44,14.43,5.2,18.58-10.96,35.88-29.74,33.25-6.96-.9-13.61-4.37-17.92-9.97-8.72-11.3-5.97-29.1,5.22-37.71h0ZM29.13,258.57c-12.58,9.55-13.52,26.15-3.12,37.67,14.87,16.41,40.61,7.54,43.67-13.94,2.73-22.65-21.95-38.24-40.54-23.74h0Z"/>
          <path class="cls-4" d="M29.96,259.66c13.23-9.86,34.12-3.23,38.34,13.01,5.63,21.25-17.04,37.4-35.86,27.2-15.13-7.96-15.56-30.11-2.48-40.21h0ZM30.64,260.55c-13.63,10.11-11.47,29.57,2.39,38.29,13.95,8.83,32.15-.94,34.15-16.88,2.56-20.35-19.91-34.49-36.54-21.42h0Z"/>
          <path class="cls-4" d="M31.55,261.74c11.8-8.84,30.47-2.92,34.23,11.59,5.06,19.01-15.21,33.51-32.05,24.32-13.43-7.07-13.94-26.97-2.18-35.91h0ZM32.15,262.54c-14.93,11.13-7.98,33.93,9.71,36.85,22.1,2.34,31.7-26.39,13.18-38.35-7.08-4.54-16.39-3.68-22.89,1.5h0Z"/>
          <path class="cls-4" d="M33.14,263.83c10.18-7.83,26.93-2.54,30.13,10.17,2.15,7.35-.77,15.79-6.99,20.22-6.12,4.55-14.68,4.87-21.26,1.22-11.8-6.27-12.26-23.75-1.88-31.61h0ZM33.67,264.52c-13.05,9.71-6.98,29.82,8.54,32.29,9.55,1.43,18.84-6.09,19.98-15.53,2.12-15.81-15.62-26.92-28.52-16.77h0Z"/>
          <path class="cls-4" d="M34.72,265.91c11.42-8.47,28.45.76,26.51,15.26-1.78,14.59-21.04,19.26-29.81,7.81-5.34-7.01-3.65-17.8,3.3-23.07h0ZM35.18,266.51c-6.96,5.02-8.09,15.11-2.76,21.7,8.38,11.08,25.26,6.21,27.27-7.26,1.86-13.6-13.44-23.12-24.51-14.44h0Z"/>
          <path class="cls-4" d="M36.3,267.99c9.6-7.18,23.97.59,22.35,12.83-1.47,12.4-17.79,16.3-25.17,6.59-4.5-5.92-3.06-15.01,2.81-19.42h0ZM36.7,268.51c-9.31,6.91-4.96,21.58,6.2,23.19,6.81.93,13.41-4.34,14.29-11.08,1.63-11.33-11.29-19.34-20.49-12.11h0Z"/>
          <path class="cls-4" d="M37.89,270.06c7.89-5.91,19.42.46,18.2,10.4-1.14,10.2-14.54,13.34-20.52,5.36-3.64-4.83-2.47-12.2,2.33-15.77h0ZM38.22,270.5c-4.61,3.3-5.4,10.38-1.79,14.66,5.53,7.31,16.92,3.97,18.27-4.88,1.42-9.06-9.14-15.55-16.48-9.78h0Z"/>
          <path class="cls-4" d="M39.47,272.14c6.03-4.62,14.99.34,14.05,7.98-.83,7.99-11.29,10.37-15.89,4.14-2.8-3.74-1.87-9.4,1.84-12.12h0ZM39.74,272.5c-3.48,2.53-4.05,7.91-1.3,11.14,4.14,5.44,12.72,2.87,13.76-3.69,1.15-6.82-6.93-11.78-12.46-7.44h0Z"/>
          <path class="cls-4" d="M41.04,274.21c4.18-3.33,10.55.21,9.9,5.56-.49,5.76-8.08,7.4-11.26,2.91-1.95-2.64-1.26-6.6,1.36-8.48h0ZM41.26,274.5c-5.35,4.39.78,12.63,6.39,8.39,5.48-4.36-.7-12.4-6.39-8.39h0Z"/>
          <path class="cls-4" d="M42.62,276.28c3.82-2.78,8.17,2.66,4.39,5.77-4,2.81-8.09-2.83-4.39-5.77h0ZM42.79,276.5c-2.87,2.35.47,6.47,3.32,4.36,2.79-2.21-.27-6.49-3.32-4.36h0Z"/>
        </g>
      </g>
    </g>
  </g>
</svg>