<?xml version="1.0" encoding="UTF-8"?>
<svg id="Capa_2" data-name="Capa 2" xmlns="http://www.w3.org/2000/svg" viewBox="0 0 385.82 390.56">
  <defs>
    <style>
      .cls-1 {
        fill: #efd9c6;
      }
    </style>
  </defs>
  <g id="Capa_1-2" data-name="Capa 1">
    <g>
      <path class="cls-1" d="M383.42,161.63c8.88,50.19-7.78,101.88-36.4,143.02-28.51,41.09-72.33,72.87-122.03,82.31-73.24,14.68-151.18-16.21-192.63-78.75-43.99-66.47-43.23-156.61,2.95-221.63C56.93,55.81,85.62,29.13,120.44,13.96,155.64-1.45,196.09-3.98,233.17,5.76c71.36,18.71,137.6,82.01,150.25,155.87h0ZM373.5,163.38c-6.71-35.84-21.14-71.13-46.31-98.09C285.16,19.61,218.93,3.21,159.03,13.83c-35.98,6.28-71.25,20.6-98.9,45.02C8.66,104.47-10.35,181.18,10.1,246.34c10.89,35.07,32.92,65.97,60.79,89.59,62.47,52.83,151.02,59.62,221.62,18.62,69.31-40.74,95.25-113.88,80.99-191.16h0Z"/>
      <path class="cls-1" d="M372.19,163.62c8.37,47.26-6.99,96.07-34.11,134.78-25.31,36.13-62.95,64.95-106.28,75.57-68.26,17.34-142.94-8.19-185.19-64.81C-.21,246.61-.92,156.26,44.11,92.73,80.54,39.54,138.34,5.51,204.13,12.02c78.02,7.17,154.75,73.68,168.06,151.59h0ZM363.01,165.24c-6.31-33.78-20.01-66.98-43.75-92.34-28.63-30.9-69.92-48.47-111.53-50.93-46.98-2.93-95.66,10.39-133.02,39.47C25.93,99.55,4.22,166.43,16.61,226.46c13.44,67.81,69.92,123.85,136.93,139.2,44.67,10.65,93.35,2.62,133.06-20.39,64.86-37.89,89.8-107.85,76.41-180.04h0Z"/>
      <path class="cls-1" d="M360.97,165.6c7.85,44.34-6.37,90.2-31.82,126.55-23.75,33.95-59.14,60.96-99.83,70.93-96.35,23.9-191.53-39.44-205.78-137.84C10.94,147.76,56.87,66.12,128.56,34.81c28.63-12.27,61.04-15.25,91.53-9.03,66.92,13.77,129.11,71.61,140.89,139.83h0ZM352.5,167.1c-12.81-71.62-60.61-123.08-133.8-133.19-45.15-5.99-92.65,4.98-130.08,31.15C38.55,99.75,15.21,165.54,27.64,224.51c10.45,52.9,48.98,98.62,97.91,120.4,39.2,17.77,85.02,19.09,125.55,4.64,78.93-27.66,116.46-101.56,101.4-182.45h0Z"/>
      <path class="cls-1" d="M349.76,167.58c7.27,41.43-5.75,84.31-29.55,118.31-22.21,31.76-55.32,56.97-93.37,66.29-90.04,22.36-179.17-36.89-192.6-128.84-11.81-72.5,31.19-148.97,98.39-178.09,48.89-21.35,107.5-11.13,149.63,20.15,33.6,24.52,60.46,60.56,67.51,102.17h0ZM341.99,168.95c-7.28-40.05-27.29-77.71-61.79-100.61-41.95-28.55-97.42-31.94-144.51-15.21-71.54,23.88-111.86,95.78-97.02,169.42,11.63,59.35,60.86,108.59,119.55,121.98,29.21,7.01,60.56,4.78,88.92-5.19,73.31-25.47,109.02-95.4,94.85-170.4h0Z"/>
      <path class="cls-1" d="M338.57,169.56c11.27,67.44-31.53,138-93.4,164.77-45.31,19.37-100.25,13.48-140.42-15.21-48.91-33.38-71.6-98.47-57.45-155.34,9.03-37.72,32.07-71.29,63.74-93.81,59.07-42.23,138.08-27.48,186.79,23.44,20.48,20.77,35.85,47.15,40.73,76.14h0ZM331.46,170.82c-6.48-36.77-25.82-72.57-57.56-93.46-47.09-31.86-111.14-30.15-159.71-2.48-53.24,29.57-78.07,94.33-62.96,152.62,13.03,52.1,57.12,94.53,109.33,106.48,27.13,6.52,56.27,4.46,82.61-4.82,67.75-23.35,101.54-89.11,88.29-158.34h0Z"/>
      <path class="cls-1" d="M327.39,171.53c11.99,71.46-41.27,146.67-112.14,160.37-75.62,14.87-148.28-35.93-159.58-112.34C40.64,127.12,126.84,35.3,221.05,60.55c51.82,13.62,96.8,57.6,106.34,110.99h0ZM320.91,172.68c-5.68-31.84-21.65-62.9-48.01-82.48-57.39-43.71-149.28-29.83-191.38,28.7-42.56,60.11-24.88,142.3,34.79,183.7,42.47,30.33,101.72,32.11,146.54,5.42,47.81-27.46,68.33-82.35,58.07-135.35h0Z"/>
      <path class="cls-1" d="M316.22,173.51c11.07,65.64-37.67,134.89-102.91,147.39-79.96,15.38-151.51-46.77-148.34-127.99,2.15-53.6,39.81-105.03,91.7-120.47,20.06-5.86,41.81-6.19,61.96-.95,47.78,12.51,88.77,52.87,97.6,102.02h0ZM310.36,174.54c-5.2-29.25-20-57.69-44.19-75.65-40-30.5-97.45-30.25-140.16-5.48-27.87,15.76-48.09,44.33-54.28,75.77-13.47,64.67,29.76,128.85,93.51,143.65,46.32,11.14,99.43-6.93,126.98-46.53,18.82-26.37,23.93-60.35,18.14-91.76h0Z"/>
      <path class="cls-1" d="M305.07,175.48c10.2,59.87-34.14,123.05-93.71,134.42-63.32,12.49-124.61-30.14-134.2-94.14-7.51-45.02,14.5-92.12,51.75-117.77,38.27-27.22,90.91-23.98,127.97,3.69,24.23,17.63,43.07,43.91,48.19,73.8h0ZM299.79,176.41c-10.99-62.93-65.3-99.14-127.64-88.37-61.98,10.77-101.24,64.38-89.51,126.75,11.06,57.83,69.45,98.91,127.66,89.06,63.1-10.05,101.14-64.72,89.49-127.44h0Z"/>
      <path class="cls-1" d="M293.93,177.45c9.31,54.11-30.64,111.2-84.51,121.45-57.35,11.25-112.61-27.13-121.49-85.04-6.83-40.75,13.14-83.41,46.94-106.53,34.63-24.46,82.18-21.59,115.66,3.42,21.89,15.93,38.77,39.73,43.39,66.7h0ZM289.2,178.28c-9.87-56.54-59.17-89.41-115.17-79.61-55.67,9.73-90.99,58.19-80.43,114.19,10.01,52.24,62.19,89.04,114.8,80.27,56.74-8.99,91.24-58.43,80.8-114.85h0Z"/>
      <path class="cls-1" d="M282.8,179.42c4.76,26.99-4.47,55.21-21.82,76.04-50.77,61.65-149.33,35.42-162.27-43.5-6.14-36.48,11.79-74.69,42.13-95.28,20.29-14.04,46.68-18.64,70.54-12.37,35.26,9.04,65.03,38.99,71.43,75.11h0ZM278.61,180.16c-11.17-64.71-80.02-90.67-134.89-58.96-43.8,25.62-53.33,84.78-23.77,124.91,19.25,26.92,53.75,41.79,86.56,36.3,21.49-3.28,42.19-14.4,55.74-31.67,15.75-19.56,20.94-46.15,16.36-70.57h0Z"/>
      <path class="cls-1" d="M271.68,181.38c3.97,22.41-2.93,45.86-16.55,63.83-34.32,46.11-103.46,43.89-134.29-4.76-24.25-38.89-11.29-89.04,25.95-114.43,17.92-12.29,41.15-16.31,62.16-10.79,31.05,7.94,57.16,34.34,62.73,66.15h0ZM268,182.03c-8.6-50.07-58.1-75.32-104.75-58.1-35.42,12.73-54.94,48.3-47.77,85.05,7.4,40.55,48.46,69.61,89.12,62.68,18.85-2.86,36.97-12.62,48.87-27.74,13.84-17.12,18.53-40.49,14.53-61.89h0Z"/>
      <path class="cls-1" d="M260.58,183.34c4,22.78-4.67,46.72-20.88,62.93-40.39,40.96-110.13,18.59-119.41-38.14-5.56-32.6,14.31-67.03,44.86-79.33,40.47-16.69,88.05,12.26,95.43,54.54h0ZM257.38,183.91c-6.38-37.43-40.73-60.24-77.7-53.3-31.63,5.69-54.59,31.05-54.5,63.59.54,58.64,68.76,88.94,112.73,50.21,16.68-14.89,23.67-38.75,19.47-60.5h0Z"/>
      <path class="cls-1" d="M249.49,185.3c4.1,23.07-7.09,47.44-26.32,60.51-35.64,24.44-85.14,3.03-92.07-39.58-5.5-31.56,17.75-65.08,49.53-70.18,31.35-5.6,63.63,18.12,68.86,49.26h0ZM246.74,185.79c-3.73-22.4-21.07-40.64-43.54-44.58-34.01-6.13-67.2,17.52-66.91,53.23.22,48.81,57.36,74.35,93.96,41.98,13.94-12.48,20-32.39,16.49-50.63h0Z"/>
      <path class="cls-1" d="M238.42,187.26c3.37,18.76-5.57,38.54-21.19,49.22-30.81,21.14-73.5.28-75.82-37.04-1.85-32.06,28.47-59.84,60.3-51.46,18.44,4.64,33.47,20.52,36.71,39.28h0ZM236.1,187.67c-2.93-17.87-17.36-32.77-35.25-35.82-29.38-5.05-56.12,16.57-53.24,47.11,3.17,33.01,39.09,51.49,67.83,34.71,15.91-9.29,24.08-27.96,20.67-46h0Z"/>
      <path class="cls-1" d="M227.35,189.22c3.69,19.53-10.03,39.91-29.59,43.75-20.47,4.42-41.64-9.8-45-30.56-2.74-16.38,6.44-33.38,21.14-40.81,22.29-11.3,49.32,3.39,53.45,27.62h0ZM225.44,189.55c-3.22-18.71-21.67-30.83-40.1-26.94-18.38,3.62-29.74,20.25-26.23,38.66,4.76,26.1,35.95,36.68,55.85,19.16,8.53-7.62,12.58-19.64,10.49-30.88h0Z"/>
      <path class="cls-1" d="M216.3,191.17c4.59,30.45-34.66,43.64-50.01,17.06-3.03-5.62-3.79-12.44-2.15-18.6,8.02-28.16,46.39-27.37,52.16,1.54h0ZM214.76,191.44c-2-12.51-15.51-21.06-27.54-18.14-10.33,2-18.08,11.35-17.67,21.85,0,0,.11,2.12.11,2.12l.31,2.1.47,2.06.65,2.01c4.53,13.17,20.5,18.73,32.5,11.68,8.11-4.58,12.89-14.44,11.16-23.67h0Z"/>
      <path class="cls-1" d="M205.27,193.12c1.95,10.16-7.15,19.86-17.59,18.26-14.89-2.24-18.42-22.18-5.19-29.39,9.26-5.08,21.14.92,22.79,11.13h0ZM204.08,193.33c-1.05-6.82-8.46-11.44-14.97-9.34-13.35,4.39-9.94,23.7,4.11,23.24,6.83-.26,12.21-7.14,10.86-13.9h0Z"/>
    </g>
  </g>
</svg>